<?xml version="1.0" encoding="UTF-8"?><svg id="Capa_2" xmlns="http://www.w3.org/2000/svg" viewBox="0 0 195.22 256.02"><g id="DORSO_2"><g><path d="M0,98.02C.6,68.94,11.11,44.27,32.9,24.71,47.67,11.44,64.97,3.5,84.67,.92c27.91-3.66,52.89,3.61,74.61,21.22,18.37,14.89,29.77,34.32,34.12,57.63,4.79,25.65,.26,49.6-14.68,71.12-12.53,18.05-25.49,35.8-38.52,53.5-11.65,15.83-23.64,31.4-35.49,47.08-3.14,4.16-6.44,5.57-9.96,3.84-1.56-.77-2.99-2.13-4.06-3.54-19.57-25.92-39.17-51.81-58.55-77.87-8.09-10.88-15.84-22.01-22.22-34.05C2.98,126.73-.15,112.8,0,98.02ZM97.52,235.87c.76-.96,1.28-1.6,1.77-2.25,9.54-12.61,19.21-25.13,28.59-37.87,12.49-16.95,24.94-33.93,37.06-51.14,12.55-17.82,17.55-37.6,14.13-59.35-2.85-18.11-10.67-33.72-23.71-46.5-14.56-14.26-32.13-22.16-52.56-23.53-15.96-1.06-31.04,2.16-44.88,10-22.9,12.97-36.95,32.55-41.58,58.55-2.29,12.86-1.89,25.72,2.29,38.22,3.48,10.43,9.08,19.82,15.5,28.64,15.54,21.32,31.33,42.46,47.07,63.64,5.3,7.14,10.73,14.19,16.33,21.58Z"/><path d="M97.67,44.94c28.94,.07,52.52,23.81,52.39,52.74-.13,28.83-23.78,52.32-52.62,52.26-28.93-.06-52.51-23.8-52.39-52.74,.13-28.83,23.78-52.33,52.62-52.26Zm37.38,52.58c.05-20.58-16.89-37.56-37.48-37.57-20.5,0-37.39,16.78-37.51,37.29-.12,20.58,16.76,37.62,37.35,37.7,20.59,.08,37.58-16.81,37.63-37.41Z"/></g></g></svg>