<svg width="84" height="84" viewBox="0 0 84 84" fill="none" xmlns="http://www.w3.org/2000/svg">
<g clip-path="url(#clip0_111_617)">
<path d="M34.9937 57.8421C27.729 53.0115 27.2271 43.413 32.547 37.8421C37.7039 32.4343 46.261 32.4217 51.4303 37.8672C56.8507 43.5635 56.1229 53.0993 49.0088 57.817C49.9373 58.3189 50.9159 58.7706 51.8068 59.3477C57.4655 63.024 60.4642 68.231 60.6524 75.0065C60.7152 77.2649 60.665 79.5359 60.6524 81.807C60.6524 83.1118 60.0502 83.7141 58.7202 83.7141C47.5533 83.7141 36.3739 83.7141 25.207 83.7141C23.9021 83.7141 23.2622 83.0993 23.2748 81.807C23.2998 78.8584 23.1116 75.8722 23.4755 72.9613C24.3287 66.098 28.0803 61.2047 34.3036 58.2059C34.5044 58.1056 34.7177 58.0052 34.9937 57.8672V57.8421ZM57.4027 80.3515C57.4027 78.5196 57.4153 76.763 57.4027 75.019C57.3275 68.0428 52.4341 61.8948 45.6713 60.2511C38.7955 58.5824 31.6938 61.8195 28.3438 68.0303C26.2359 71.945 26.5872 76.1357 26.5997 80.3515H57.4027ZM41.9824 56.487C47.4278 56.487 51.7064 52.1834 51.6938 46.7379C51.6687 41.4054 47.34 37.0892 42.0201 37.0892C36.5872 37.0892 32.2459 41.418 32.2584 46.8258C32.271 52.2085 36.5872 56.4995 41.9824 56.487Z" fill="#3FA9F5"/>
<path d="M72.3212 37.5535C73.601 38.3063 74.9059 38.9462 76.0602 39.7868C81.079 43.4255 83.6888 48.4067 83.9398 54.5924C84.0402 56.9261 83.9774 59.2724 83.9649 61.6187C83.9649 62.8107 83.2999 63.4757 82.1204 63.4882C74.793 63.4882 67.4655 63.4882 60.1255 63.4882C59.0339 63.4882 58.3187 62.8107 58.3187 61.8446C58.3187 60.8659 59.0213 60.2134 60.1255 60.2134C66.6374 60.2134 73.1619 60.2134 79.6738 60.2134C79.9749 60.2134 80.276 60.2134 80.5772 60.2134C80.8908 54.8057 80.8156 49.6112 77.1142 45.1821C72.5345 39.7116 64.6299 38.0302 58.281 41.2925C58.0301 41.418 57.7917 41.5685 57.5282 41.6689C56.6876 41.9951 55.8344 41.694 55.4329 40.9412C55.0188 40.1507 55.2698 39.2473 56.0728 38.758C56.4241 38.5447 56.7879 38.369 57.1518 38.1808C57.4906 38.0177 57.8419 37.8671 58.281 37.6664C54.0903 34.6927 51.9573 30.7404 52.2836 25.6463C52.5094 22.0829 54.0401 19.0842 56.7629 16.7504C62.3087 11.9826 70.6148 12.7103 75.2698 18.3188C79.8494 23.827 79.3476 32.7856 72.3087 37.5911L72.3212 37.5535ZM65.2447 36.2737C70.665 36.2737 74.9812 31.9575 74.9812 26.5246C74.9812 21.2297 70.5897 16.8508 65.2949 16.8508C59.8745 16.8508 55.5332 21.1921 55.5332 26.5873C55.5332 31.9826 59.8369 36.2737 65.2447 36.2737V36.2737Z" fill="#1B1464"/>
<path d="M11.7438 37.6412C4.51668 32.8482 3.93952 23.2497 9.27202 17.6286C14.3034 12.3212 22.735 12.2334 27.9546 17.4153C33.3498 22.7729 33.1993 32.7102 25.7338 37.6286C26.3862 37.9548 27.0261 38.256 27.6409 38.5822C28.6823 39.1468 29.0085 40.0377 28.5443 40.9159C28.0801 41.7817 27.1265 42.0075 26.0976 41.4806C21.1164 38.921 16.0976 38.8582 11.2043 41.5935C6.26072 44.3664 3.66348 48.7328 3.33726 54.3915C3.22433 56.2861 3.32471 58.1932 3.32471 60.1882H4.29083C10.6271 60.1882 16.9634 60.1882 23.2996 60.1882C23.5757 60.1882 23.8642 60.1882 24.1403 60.2008C24.9809 60.2761 25.6083 60.916 25.6585 61.7441C25.7087 62.5596 25.144 63.2748 24.3159 63.4379C24.065 63.4881 23.8141 63.4756 23.5506 63.4756C16.4238 63.4756 9.29711 63.4756 2.18293 63.4756C0.589453 63.4756 0.0122885 62.9109 0.0248355 61.3175C0.0499296 58.5195 -0.113182 55.6964 0.200494 52.936C0.978412 46.0979 4.64215 41.1794 10.7777 38.0803C11.0662 37.9297 11.3799 37.8043 11.7438 37.6286V37.6412ZM9.00853 26.5747C9.00853 31.9699 13.2996 36.2735 18.6949 36.2861C24.1277 36.2861 28.4439 31.995 28.4439 26.5621C28.4439 21.2547 24.0901 16.8883 18.7827 16.8632C13.3749 16.8381 9.00853 21.1794 9.00853 26.5747V26.5747Z" fill="#1B1464"/>
<path d="M41.9447 26.0101C34.705 25.9474 28.9334 20.1381 28.9961 12.9486C29.0463 5.6839 34.8807 -0.0501054 42.1454 8.28121e-05C49.3098 0.050271 55.0689 5.95993 54.9936 13.187C54.9183 20.2887 49.0338 26.0729 41.9447 26.0101V26.0101ZM42.0325 3.29996C36.6122 3.29996 32.2583 7.62869 32.2709 13.0239C32.2709 18.3815 36.6247 22.7228 41.9949 22.7354C47.3901 22.7354 51.7188 18.3941 51.7063 12.9612C51.7063 7.64124 47.3525 3.29996 42.0325 3.29996V3.29996Z" fill="#1B1464"/>
</g>
<defs>
<clipPath id="clip0_111_617">
<rect width="83.99" height="83.7014" fill="white"/>
</clipPath>
</defs>
</svg>
