<svg width="84" height="84" viewBox="0 0 84 84" fill="none" xmlns="http://www.w3.org/2000/svg">
<path d="M3.87728 42.2231C4.02174 45.9981 4.34675 54.5952 9.8983 63.0414C15.6797 71.8388 23.8117 75.4201 26.7204 76.6544C30.5549 78.2826 40.9752 81.9854 53.0829 78.253C58.792 76.4936 64.1203 73.3258 68.6312 68.8057C77.3804 60.0378 80.9227 49.3069 79.4093 36.9906C79.1565 34.9422 78.5819 32.93 78.0993 30.9145C77.6988 29.2338 78.7133 27.878 80.3219 28.0586C81.3167 28.1702 81.8649 28.8037 82.1407 29.713C83.5097 34.2529 84.1696 38.8978 83.9529 43.6346C83.5261 52.9047 80.5123 61.2524 74.6226 68.4413C67.4427 77.2092 58.1748 82.4548 46.8977 83.6989C32.6167 85.2745 20.4696 80.6559 10.7519 70.0859C4.35004 63.1202 0.765 54.7725 0.118249 45.3186C-0.823972 31.5447 3.86743 19.9078 14.0907 10.6377C20.5878 4.74545 28.3258 1.37748 37.0454 0.304069C42.8563 -0.411541 48.5556 0.153068 54.1564 1.81735C54.9936 2.06683 55.6633 2.48701 55.903 3.37331C56.3265 4.92927 55.0002 6.29812 53.4013 5.95345C51.2936 5.50045 49.2089 4.90629 47.0816 4.59773C40.1544 3.59325 33.4144 4.45658 27.029 7.29932C19.3238 10.7297 14.5733 15.7783 12.9778 17.6199C10.6665 20.2821 5.45969 26.4304 4.12679 35.7662C3.74268 38.4513 3.80834 40.4833 3.874 42.2231H3.87728Z" fill="#1B1464"/>
<path d="M42.8267 71.2022C27.8464 71.1957 15.5548 60.8128 13.2272 46.8157C10.6237 31.1773 20.696 16.3957 36.1556 13.1787C38.631 12.6634 41.1359 12.4927 43.6606 12.647C44.5306 12.6995 45.2692 12.9818 45.742 13.7532C46.1753 14.459 46.2377 15.2008 45.7945 15.9263C45.3349 16.6813 44.6192 16.9636 43.7623 16.8782C40.3546 16.5401 37.0256 16.9833 33.8477 18.1913C24.2088 21.8613 18.4439 28.8106 17.2062 39.0654C15.7058 51.4836 23.3815 62.6477 35.4005 66.0912C49.3993 70.1026 64.222 60.885 66.7466 46.5268C67.0979 44.5277 67.0946 42.4531 67.0979 40.4146C67.0979 39.0031 67.7414 37.9625 69.0185 37.8377C70.2266 37.7163 71.2082 38.596 71.3166 39.978C71.5661 43.1687 71.3428 46.3364 70.4203 49.3991C66.8057 61.3872 58.8018 68.5368 46.5036 70.851C45.0591 71.1235 43.5686 71.1333 42.8234 71.2022H42.8267Z" fill="#1B1464"/>
<path d="M54.6592 22.4488C54.6592 21.382 54.6723 20.3151 54.6559 19.2483C54.6427 18.4079 54.9251 17.7251 55.5292 17.1244C59.564 13.113 63.5856 9.09184 67.5975 5.05751C68.323 4.32877 69.1306 3.99394 70.1122 4.37801C71.1136 4.76864 71.4287 5.59914 71.4189 6.62003C71.4025 8.2876 71.4583 9.95845 71.3959 11.6227C71.3664 12.4401 71.6421 12.6305 72.4136 12.6042C74.0814 12.5452 75.7492 12.5977 77.4169 12.5813C78.4084 12.5714 79.2062 12.8898 79.6034 13.8451C80.0072 14.82 79.6986 15.6407 78.9698 16.3694C74.9218 20.4037 70.8772 24.4446 66.8457 28.4954C66.2646 29.0764 65.6014 29.339 64.7905 29.3357C62.6861 29.3226 60.5784 29.3521 58.474 29.3193C57.8798 29.3095 57.4596 29.4802 57.0361 29.9036C52.7386 34.2301 48.4215 38.5369 44.1043 42.8503C43.8548 43.0997 43.6053 43.3623 43.323 43.5724C42.4497 44.2191 41.2974 44.1108 40.5685 43.3394C39.8561 42.5844 39.797 41.4781 40.4438 40.6411C40.644 40.3817 40.8837 40.1552 41.1135 39.9222C45.4044 35.6285 49.692 31.325 54.0058 27.0543C54.4983 26.5652 54.7051 26.0827 54.669 25.4032C54.6198 24.4217 54.6559 23.4336 54.6559 22.4488H54.6592ZM67.2396 11.5275C67.0722 11.5965 67.0131 11.603 66.977 11.6359C64.3637 14.2423 61.7504 16.8454 59.147 19.4583C59.0223 19.5831 58.8877 19.7735 58.8844 19.9376C58.8647 21.6478 58.8713 23.3614 58.8713 25.1307C60.5259 25.1307 62.082 25.1635 63.6316 25.1077C64.0157 25.0946 64.4786 24.8943 64.7511 24.6285C67.1904 22.2387 69.5968 19.8129 72.0131 17.3936C72.174 17.2327 72.3053 17.0489 72.453 16.8716C72.3644 16.8126 72.3447 16.7863 72.325 16.7863C71.3696 16.7764 70.411 16.783 69.4556 16.76C68.0932 16.7305 67.2626 15.9066 67.2429 14.5541C67.2265 13.5759 67.2429 12.5944 67.2429 11.5275H67.2396Z" fill="#1B1464"/>
<path d="M40.8307 58.6167C33.4308 58.6035 26.2345 52.0318 25.4203 43.4116C24.6094 34.8046 30.5844 26.9526 39.1235 25.4229C39.9804 25.2686 40.8569 25.18 41.7269 25.1439C43.1813 25.0881 44.1629 25.9284 44.199 27.1758C44.2352 28.4166 43.3061 29.3029 41.832 29.3358C39.6521 29.3883 37.6265 29.9595 35.7486 31.0526C31.0605 33.787 28.6869 39.2492 29.8458 44.6229C30.9751 49.8587 35.5089 53.8602 40.8832 54.3624C48.1419 55.0419 54.3271 49.6387 54.639 42.3415C54.7112 40.6805 55.5582 39.7154 56.8747 39.7975C58.0763 39.8697 58.9134 40.8085 58.8511 42.1609C58.5523 48.7393 55.5123 53.6402 49.7243 56.7817C47.354 58.0685 44.7736 58.6298 40.8274 58.6101L40.8307 58.6167Z" fill="#1B1464"/>
</svg>
