<svg width="34" height="44" viewBox="0 0 34 44" fill="none" xmlns="http://www.w3.org/2000/svg">
<path d="M0 17.0266C0.107362 11.9083 1.91173 7.67992 5.64862 4.3072C7.96382 2.21793 10.6704 0.872622 13.7423 0.312506C18.9095 -0.630756 23.5694 0.570228 27.6318 3.83986C30.773 6.36897 32.7436 9.66953 33.4848 13.6299C34.3818 18.4183 33.3653 22.8133 30.4613 26.7376C26.3816 32.2477 22.2533 37.7251 18.1476 43.2163C17.3614 44.2678 16.4575 44.2627 15.6644 43.2026C11.6072 37.7818 7.55342 32.3577 3.49272 26.9403C1.79398 24.6741 0.675341 22.1639 0.23204 19.3736C0.102167 18.5558 0.0675341 17.7242 0.00173164 17.0283L0 17.0266ZM16.906 25.7806C21.9278 25.7823 26.0093 21.7309 26.0058 16.7483C26.0041 11.7846 21.9364 7.74005 16.9355 7.72802C11.912 7.716 7.8201 11.7571 7.81317 16.738C7.80624 21.7206 11.8843 25.7771 16.9043 25.7789L16.906 25.7806Z" fill="#1B1464"/>
</svg>
