<?xml version="1.0" encoding="UTF-8"?><svg id="Capa_2" xmlns="http://www.w3.org/2000/svg" viewBox="0 0 547.59 276.64"><defs><style>.cls-1{fill:#1b1454;}</style></defs><g id="Capa_2-2"><g id="Layer_1"><g><path class="cls-1" d="M415.99,0h-131.6V276.64h131.6c72.68,0,131.6-58.92,131.6-131.6v-13.44c0-72.68-58.92-131.6-131.6-131.6Zm58.08,110.98c-2.99,.15-5.99,.13-8.99,.03-1.32-.04-1.94,.45-2.31,1.64-6.01,19.5-16.91,36.18-29.94,51.61-2.03,2.41-4.17,4.74-6.47,7.36,3.68,2.66,7.23,5.34,10.9,7.85,3.77,2.59,7.63,5.04,11.47,7.53,5.2,3.37,6.64,8.82,3.65,14.26-2.11,3.86-4.3,7.67-6.48,11.49-3.18,5.55-9.44,7.3-14.75,3.71-9.84-6.66-19.5-13.6-29.23-20.43-.33-.23-.64-.49-.94-.71-5.79,4.21-11.44,8.44-17.22,12.49-4.22,2.96-8.55,5.77-12.93,8.49-5.96,3.69-11.73,2.17-15.26-3.9-2.13-3.66-4.26-7.33-6.29-11.04-2.96-5.42-1.47-10.87,3.69-14.28,7.54-4.99,15.03-10.07,22.29-14.94-6.12-7.76-12.02-15.06-17.68-22.54-1.18-1.56-1.95-3.74-2.11-5.71-.32-3.81,1.31-6.98,4.67-9.03,4.04-2.47,8.1-4.92,12.22-7.24,4.85-2.72,10.21-1.32,13.72,3.17,4.7,6.01,9.55,11.9,14.62,18.21,10.9-11.52,19.98-23.5,26.43-37.97h-3.41c-31.3,0-62.61-.14-93.91,.1-7.97,.06-12.04-5.31-12-11.99-.04-3.6-.04-7.56,.06-11.23,.03-6.7,4.23-10.93,10.88-10.93h54.73c0-4.33-.06-8.45,.03-12.58,.04-1.64,.14-3.38,.72-4.89,1.62-4.19,4.79-6.51,9.35-6.6,4.58-.08,9.16-.08,13.74,0,6.05,.1,10.29,4.37,10.38,10.45,.07,4.41,.01,8.81,.01,13.62h54.66c6.74,0,10.82,4.13,10.84,10.88,.02,4.57,.1,9.15,.13,13.72,.03,4.71-4.29,9.14-9.29,9.39h.02Z"/><g><path class="cls-1" d="M131.6,0C58.92,0,0,58.92,0,131.6v13.44c0,72.68,58.92,131.6,131.6,131.6h131.6V0H131.6Zm77.6,218.63c-5.74,0-11.49,0-17.23,0-5.84,0-9.55-2.83-11.17-8.4-2.56-8.76-5.13-17.51-7.75-26.45h-52.24c-1.86,6.45-3.73,12.89-5.58,19.33-.73,2.55-1.4,5.12-2.14,7.67-1.47,5.06-5.23,7.88-10.48,7.88-6.24,0-12.49,0-18.73,0-7.8-.02-12.62-6.74-10.09-14.24,6.88-20.35,13.85-40.66,20.76-61,9.42-27.71,18.82-55.43,28.23-83.15,1.99-5.86,5.26-8.26,11.51-8.28,8.66-.03,17.31-.02,25.97,0,5.53,0,9.08,2.58,10.86,7.81,12.65,37.21,25.3,74.42,37.95,111.63,3.63,10.68,7.27,21.35,10.9,32.03,2.99,8.8-1.53,15.16-10.77,15.17Z"/><path class="cls-1" d="M130.6,151.1h32.52c-5.49-20.37-10.93-40.59-16.13-59.86-5.3,19.36-10.85,39.62-16.4,59.86h0Z"/></g></g></g></g></svg>