<svg width="56" height="74" viewBox="0 0 56 74" fill="none" xmlns="http://www.w3.org/2000/svg">
<path d="M43.4575 73.915C50.3376 73.915 55.915 68.3376 55.915 61.4575C55.915 54.5774 50.3376 49 43.4575 49C36.5774 49 31 54.5774 31 61.4575C31 68.3376 36.5774 73.915 43.4575 73.915Z" fill="white"/>
<path d="M26.8025 13.4012C26.8025 5.99847 20.804 0 13.4012 0C5.99847 0 0 5.99847 0 13.4012C0 13.4654 0.003775 13.5258 0.003775 13.59H0V60.4H0.003775C0.1057 67.7122 6.06265 73.6125 13.4012 73.6125H26.8025V13.59H26.7987C26.7987 13.5258 26.8025 13.4654 26.8025 13.4012Z" fill="white"/>
</svg>
