<svg id="90d6756c-b38b-42fc-b539-03556f4ed99c" data-name="Layer 1" xmlns="http://www.w3.org/2000/svg" viewBox="0 0 92.45 81.5"><defs><style>.\30 38f8ae5-2143-4e4e-8c82-a08f76cdbf5e{fill:#1860aa;}.dde423f0-6151-41e8-94a7-6817a6cfb273{fill:#1d1d1b;}</style></defs><title>logo_manora</title><path class="038f8ae5-2143-4e4e-8c82-a08f76cdbf5e" d="M159.64,151.88a22.78,22.78,0,0,1-30.57-7.19c6.44-9.41,15.25-21.61,17.74-21.72,3.83-.18-3.43,12.31,1.6,14.58,4.72,2.13,5.15-4.44,10.84-4.09,4.82,0.3,2.62,10.83.39,18.42m-34.19-21.71A22.77,22.77,0,1,1,166,146.35a42.65,42.65,0,0,0,2.15-13.25c0.16-12.43-3.63-9.25-10-10-5.06-.57,6.22-11.2-4.62-10.59-9.16.51-21.77,11.5-28.11,17.61" transform="translate(-103.67 -109.43)"/><path class="dde423f0-6151-41e8-94a7-6817a6cfb273" d="M106.81,188.76h-2.53v-5.13h-0.61v5.62h3.14v-0.5Zm9.82,0a1.57,1.57,0,0,1-.46-0.47,1.61,1.61,0,0,1-.23-0.93,1.85,1.85,0,0,1,.32-1.13,1.05,1.05,0,0,1,.9-0.43,1,1,0,0,1,.89.45,1.75,1.75,0,0,1,.3,1,1.93,1.93,0,0,1-.22,1,1.51,1.51,0,0,1-.44.51,1,1,0,0,1-.52.14,1,1,0,0,1-.54-0.14m1.83,0a2.12,2.12,0,0,0,.48-1.4,2.23,2.23,0,0,0-.46-1.44,1.57,1.57,0,0,0-1.31-.58,1.7,1.7,0,0,0-1.33.56,2,2,0,0,0-.5,1.39,2.27,2.27,0,0,0,.47,1.49,1.69,1.69,0,0,0,1.38.56,1.57,1.57,0,0,0,1.27-.58M129,187.54a0.87,0.87,0,0,1-.28-0.22,0.93,0.93,0,0,1-.17-0.31,1.11,1.11,0,0,1-.06-0.35,1.41,1.41,0,0,1,0-.35,0.85,0.85,0,0,1,.15-0.31,0.75,0.75,0,0,1,.28-0.22,1,1,0,0,1,.43-0.08,0.87,0.87,0,0,1,.37.07,0.76,0.76,0,0,1,.26.2,0.81,0.81,0,0,1,.15.29,1.13,1.13,0,0,1,.05.34,1.84,1.84,0,0,1,0,.42,0.91,0.91,0,0,1-.15.33,0.67,0.67,0,0,1-.26.21,0.88,0.88,0,0,1-.38.07,0.9,0.9,0,0,1-.4-0.08m-0.26,1.57,0.27,0,0.44,0.06a4.6,4.6,0,0,1,.59.14,1.66,1.66,0,0,1,.3.14,0.7,0.7,0,0,1,.2.17,0.35,0.35,0,0,1,.08.22,0.37,0.37,0,0,1-.07.23,0.66,0.66,0,0,1-.19.17,1.26,1.26,0,0,1-.27.12l-0.3.08-0.29,0h-0.24a2,2,0,0,1-.36,0,1,1,0,0,1-.33-0.11,0.69,0.69,0,0,1-.24-0.22,0.65,0.65,0,0,1-.09-0.36,0.76,0.76,0,0,1,.09-0.34,1.58,1.58,0,0,1,.25-0.35l0.18,0m2.61-3.26,0.07-.46a3.06,3.06,0,0,0-.5,0,2.77,2.77,0,0,0-.54.15,1.69,1.69,0,0,0-.46-0.21,1.86,1.86,0,0,0-.49-0.07,1.79,1.79,0,0,0-.56.09,1.51,1.51,0,0,0-.48.26,1.28,1.28,0,0,0-.34.42,1.25,1.25,0,0,0-.13.58,1.33,1.33,0,0,0,.15.67,1.2,1.2,0,0,0,.46.44l-0.22.08a1.2,1.2,0,0,0-.24.14,0.91,0.91,0,0,0-.19.19,0.39,0.39,0,0,0-.08.24,0.44,0.44,0,0,0,0,.21,0.55,0.55,0,0,0,.12.15,0.88,0.88,0,0,0,.17.12l0.19,0.1a1.77,1.77,0,0,0-.23.19,1.44,1.44,0,0,0-.19.23,1.11,1.11,0,0,0-.13.26,0.78,0.78,0,0,0,0,.27,0.84,0.84,0,0,0,.11.44,0.9,0.9,0,0,0,.31.31,1.5,1.5,0,0,0,.47.18,3,3,0,0,0,.6.06l0.44,0a3.49,3.49,0,0,0,.46-0.06,2.66,2.66,0,0,0,.43-0.13,1.38,1.38,0,0,0,.36-0.21,1,1,0,0,0,.25-0.31,0.92,0.92,0,0,0,.09-0.43,0.73,0.73,0,0,0-.13-0.44,1.05,1.05,0,0,0-.33-0.3,2,2,0,0,0-.46-0.2,8.12,8.12,0,0,0-.81-0.16l-0.72-.11a1.55,1.55,0,0,1-.33-0.09,0.17,0.17,0,0,1-.13-0.15,0.23,0.23,0,0,1,.06-0.15,0.7,0.7,0,0,1,.15-0.12l0.17-.09,0.15,0a2.21,2.21,0,0,0,.51.06,1.88,1.88,0,0,0,.55-0.08,1.35,1.35,0,0,0,.47-0.25,1.21,1.21,0,0,0,.33-0.42,1.39,1.39,0,0,0,.12-0.61,1.19,1.19,0,0,0-.06-0.41,1.48,1.48,0,0,0-.15-0.31l0.24-.05h0.5Zm8.67,3.4h0.57v-3.88H140v3.88Zm0-4.89a0.34,0.34,0,0,0,.24.1,0.33,0.33,0,0,0,.23-0.1,0.33,0.33,0,0,0,.1-0.25,0.36,0.36,0,0,0-.09-0.24,0.3,0.3,0,0,0-.24-0.11,0.31,0.31,0,0,0-.25.11,0.36,0.36,0,0,0-.09.24,0.33,0.33,0,0,0,.1.25m9.37,4.36a1.76,1.76,0,0,0,.71.47,2.67,2.67,0,0,0,.84.12,1.69,1.69,0,0,0,1-.3,1,1,0,0,0,.19-1.45,1.81,1.81,0,0,0-.73-0.43l-0.32-.1-0.32-.1a1.93,1.93,0,0,1-.53-0.24,0.46,0.46,0,0,1-.22-0.4,0.43,0.43,0,0,1,.24-0.4,1.2,1.2,0,0,1,.6-0.14,1.37,1.37,0,0,1,.53.1,1.81,1.81,0,0,1,.48.31l0.33-.39a1.54,1.54,0,0,0-.28-0.22,1.6,1.6,0,0,0-.31-0.14,1.94,1.94,0,0,0-.35-0.08l-0.4,0a1.66,1.66,0,0,0-1,.28,0.86,0.86,0,0,0-.38.73,0.85,0.85,0,0,0,.35.73,2.27,2.27,0,0,0,.76.37l0.58,0.2a1.31,1.31,0,0,1,.52.29,0.5,0.5,0,0,1,.13.35,0.52,0.52,0,0,1-.25.46,1.16,1.16,0,0,1-.65.17,1.3,1.3,0,0,1-.65-0.15,2.1,2.1,0,0,1-.5-0.41Zm11.39-2.86h0.56v2.39a1.09,1.09,0,0,0,.25.84,1,1,0,0,0,.71.23l0.36,0,0.3,0,0-.49-0.25.06a1.69,1.69,0,0,1-.32,0,0.36,0.36,0,0,1-.34-0.2,1.12,1.12,0,0,1-.11-0.54v-2.24h0.88l0.06-.49H162v-1H161.4v1h-0.56v0.49Zm11,3.38h0.57v-3.88h-0.57v3.88Zm0-4.89a0.33,0.33,0,0,0,.24.1,0.33,0.33,0,0,0,.23-0.1,0.33,0.33,0,0,0,.1-0.25,0.36,0.36,0,0,0-.09-0.24,0.3,0.3,0,0,0-.24-0.11,0.31,0.31,0,0,0-.25.11,0.36,0.36,0,0,0-.09.24,0.33,0.33,0,0,0,.1.25m12.3,4a1.47,1.47,0,0,1-.41.4,1.19,1.19,0,0,1-.64.15,1,1,0,0,1-.83-0.48,2,2,0,0,1-.33-1.16,1.79,1.79,0,0,1,.31-1.09,1,1,0,0,1,.84-0.43,1.23,1.23,0,0,1,.54.11,1.17,1.17,0,0,1,.41.35l0.37-.34a1.46,1.46,0,0,0-.5-0.39,1.83,1.83,0,0,0-.79-0.15,1.61,1.61,0,0,0-1.29.56,2.12,2.12,0,0,0-.48,1.42,2.16,2.16,0,0,0,.48,1.45,1.6,1.6,0,0,0,1.28.56,1.84,1.84,0,0,0,.89-0.19,1.59,1.59,0,0,0,.56-0.51Zm8.92,0.38a1.76,1.76,0,0,0,.7.47,2.67,2.67,0,0,0,.84.12,1.69,1.69,0,0,0,1-.3,1,1,0,0,0,.19-1.45,1.8,1.8,0,0,0-.73-0.43l-0.32-.1-0.32-.1a1.92,1.92,0,0,1-.53-0.24,0.46,0.46,0,0,1-.22-0.4,0.43,0.43,0,0,1,.24-0.4,1.2,1.2,0,0,1,.6-0.14,1.37,1.37,0,0,1,.53.1,1.81,1.81,0,0,1,.48.31l0.33-.39a1.58,1.58,0,0,0-.28-0.22,1.62,1.62,0,0,0-.31-0.14,2,2,0,0,0-.35-0.08l-0.4,0a1.66,1.66,0,0,0-1,.28,0.86,0.86,0,0,0-.38.73,0.85,0.85,0,0,0,.35.73,2.27,2.27,0,0,0,.76.37l0.58,0.2a1.32,1.32,0,0,1,.52.29,0.5,0.5,0,0,1,.13.35,0.52,0.52,0,0,1-.26.46,1.16,1.16,0,0,1-.65.17,1.3,1.3,0,0,1-.65-0.15,2.1,2.1,0,0,1-.5-0.41Z" transform="translate(-103.67 -109.43)"/><path class="dde423f0-6151-41e8-94a7-6817a6cfb273" d="M117.15,164.4v13.1H119V160.12H117.1L112,175.55l-5.2-15.44h-2v17.38h1.88V164.4l4.4,13.1h1.73Zm10.63-2.11,2.49,7.94h-5.09Zm-6.71,15.2h1.87l1.86-5.92h5.86l1.85,5.92h2.08l-5.76-17.38H127Zm26.06,0h1.81V160.12h-1.88v14.34l-8.63-14.34h-1.88v17.38h1.87V163.22Zm8.56-3.32a8.76,8.76,0,0,1-1.64-5.7,8.29,8.29,0,0,1,1.56-5.18,5.1,5.1,0,0,1,4.28-2,4.5,4.5,0,0,1,4.17,2.27,9.24,9.24,0,0,1,1.34,4.76q0,3.89-1.71,5.89a5,5,0,0,1-3.87,2,5.12,5.12,0,0,1-4.12-2m9.52,1a9.57,9.57,0,0,0,2.18-6.4,10.4,10.4,0,0,0-2-6.62,6.69,6.69,0,0,0-5.58-2.51,7.15,7.15,0,0,0-5.55,2.51,9.09,9.09,0,0,0-2.24,6.3,10.68,10.68,0,0,0,2,6.75,6.77,6.77,0,0,0,5.67,2.55,6.9,6.9,0,0,0,5.5-2.58m7.17-13.58h2.11a5.4,5.4,0,0,1,3.34.81,3.17,3.17,0,0,1,1,2.63,3.22,3.22,0,0,1-1.21,2.6,5.24,5.24,0,0,1-3.44,1h-1.81v-7Zm0,8.47q2.79,0,2.94,0l4.48,7.45H182l-4.85-7.82a4.93,4.93,0,0,0,2.52-1.7,4.44,4.44,0,0,0,1.09-2.89,4.74,4.74,0,0,0-1.41-3.68,6,6,0,0,0-4.17-1.29h-4.71v17.38h1.88v-7.41Zm16.93-7.8,2.49,7.94h-5.09Zm-6.72,15.2h1.87l1.86-5.92h5.86l1.85,5.92h2.08l-5.76-17.38h-1.83Z" transform="translate(-103.67 -109.43)"/></svg>