<?xml version="1.0" encoding="UTF-8"?><svg id="Capa_2" xmlns="http://www.w3.org/2000/svg" viewBox="0 0 319.53 284.61"><defs><style>.cls-1{fill:#305fa5;}.cls-2{fill:#21211f;}</style></defs><g id="Capa_1-2"><g><path class="cls-1" d="M147.55,159.04c-23.23-.69-45.43-12.05-61.66-34.8-.71-.99-.66-1.58,.01-2.53,13.84-19.57,27.26-39.45,42.73-57.82,4.29-5.09,8.57-10.2,13.87-14.33,.92-.71,1.87-1.43,2.91-1.93,2.93-1.42,5.4,.03,5.67,3.27,.47,5.74-1.14,11.21-2.3,16.74-1.24,5.95-2.46,11.9-2.33,18.02,.03,1.33,.13,2.67,.38,3.97,1.63,8.66,11.08,12.73,18.5,7.91,3.36-2.18,6.12-5.12,9.08-7.8,4.18-3.79,9.02-5.85,14.68-5.95,5.47-.1,8.93,2.54,10.45,7.77,1.85,6.39,1.5,12.85,.77,19.32-1.36,12.03-4.36,23.7-7.59,35.33-.42,1.52-1.19,2.37-2.55,3.07-12.87,6.65-24.87,9.76-42.61,9.76Z"/><path class="cls-1" d="M214.93,127.86c1.15-4.49,2.31-8.61,3.25-12.78,3.42-15.29,4.57-30.76,3.3-46.38-.32-3.9-.92-7.75-2.3-11.46-2.06-5.55-6.36-8.77-12.26-8.98-5.82-.2-11.65-.32-17.48-.51-1.16-.04-2.33-.18-3.46-.42-2.72-.57-4-2.19-3.85-4.96,.19-3.54,1.51-6.81,2.6-10.12,1.07-3.23,2.36-6.39,2.86-9.8,1.05-7.18-2.12-10.97-9.38-11.71-9.82-.99-19.03,1.25-27.97,4.92-18.3,7.51-34.16,18.91-49.38,31.29-9.24,7.52-18.28,15.26-26.84,23.55-.35,.34-.72,.65-1.16,1.04,.62-21.34,16.8-53.84,50.77-66.45,35.49-13.18,75.1-.16,95.47,31.74,19.66,30.8,14.34,68.04-4.17,91.02Z"/><path class="cls-2" d="M25.28,230.93c5.69-17.21,11.28-33.97,16.73-50.77,.77-2.37,1.66-3.52,4.4-3.26,3.36,.32,3.38,.08,3.38,3.49,0,18.24-.03,36.49,.05,54.73,0,1.95-.27,2.78-2.51,2.68-4.07-.2-4.07-.05-4.07-4.06,0-12.41,0-24.82,0-37.24,0-.86,0-1.72,0-2.58l-.58-.07c-1.88,5.62-3.76,11.25-5.64,16.87-2.78,8.32-5.62,16.63-8.31,24.98-.49,1.51-1.05,2.12-2.71,2.08-3.97-.1-3.98,0-5.25-3.73-4.4-12.96-8.79-25.92-13.19-38.88-.22-.66-.46-1.32-1.04-1.88,0,13.81,.01,27.62-.03,41.42,0,.99,.63,2.63-.5,2.88-1.81,.4-3.79,.13-5.68-.02-.48-.04-.3-.87-.3-1.34,0-19.24,0-38.48-.03-57.73,0-1.24,.43-1.5,1.58-1.55,5.32-.24,5.31-.28,7.01,4.75,5.5,16.26,11.02,32.52,16.68,49.23Z"/><path class="cls-2" d="M117.78,188.97c0,.89,0,1.77,0,2.66,0,14.57-.04,29.14,.05,43.71,.01,1.99-.55,2.5-2.48,2.44-4.1-.14-4.1-.03-4.1-4.02,0-18.07,.03-36.13-.04-54.2,0-1.97,.35-2.56,2.5-2.7,3.17-.21,4.8,.91,6.4,3.64,8.6,14.61,17.46,29.07,26.23,43.58,.42,.69,.86,1.37,1.75,2.04,0-.85,0-1.69,0-2.54,0-14.74,.04-29.47-.05-44.21-.01-2,.54-2.51,2.48-2.44,4.08,.13,4.08,.03,4.08,4.05,0,18.07-.03,36.13,.05,54.2,0,2.02-.43,2.52-2.53,2.66-3.01,.21-4.52-.95-6.01-3.44-8.76-14.62-17.71-29.12-26.6-43.66-.38-.62-.79-1.23-1.18-1.85l-.55,.08Z"/><path class="cls-2" d="M165.45,207.92c.02-12.42,3.8-21.84,13.26-28.28,10.62-7.23,26.03-5.19,33.46,4.45,6.2,8.05,7.94,17.44,7.01,27.39-.69,7.34-3.61,13.68-8.45,19.31-9.77,11.35-32.49,11.45-40.74-4.91-3.06-6.07-4.76-12.39-4.54-17.97Zm46.82-.12c.21-6.1-1.05-11.85-3.87-17.31-2.82-5.45-7.06-8.79-13.23-9.29-7.29-.6-13.63,1.37-17.7,7.88-6.59,10.54-6.57,21.6-1.67,32.69,3.05,6.9,8.43,11.13,16.23,11.37,7.29,.22,12.5-3.55,16.14-9.55,2.91-4.8,3.92-10.2,4.11-15.78Z"/><path class="cls-2" d="M270.07,237.99c-2.17,0-4.31-.07-6.44,.03-1.28,.06-1.44-.96-1.87-1.67-4.54-7.55-9.1-15.08-13.54-22.69-.83-1.43-1.72-1.98-3.35-1.87-2.07,.15-4.17,.14-6.24,0-1.62-.11-1.93,.52-1.91,2,.07,7.24-.02,14.48,.07,21.73,.02,1.8-.22,2.63-2.36,2.54-4.36-.18-4.37-.04-4.37-4.51,0-17.98,.03-35.96-.04-53.94,0-1.9,.38-2.57,2.42-2.51,5.66,.17,11.32,0,16.98,.14,8.24,.21,14.33,5,16.25,12.56,2.03,8.02-2.25,16.72-9.97,19.84-2.01,.81-1.95,1.49-.92,3.1,4.81,7.59,9.51,15.24,14.23,22.88,.42,.68,1.08,1.26,1.06,2.37Zm-33.31-43.55c0,3.58-.01,7.16,0,10.75,0,.69-.26,1.63,.96,1.6,4.8-.12,9.66,.61,14.27-1.54,5.29-2.47,8.03-7.22,7.39-13.18-.53-4.97-3.75-8.08-9.57-9.35-3.71-.81-7.47-.25-11.2-.51-1.64-.11-1.92,.54-1.88,1.99,.09,3.41,.03,6.83,.03,10.25Z"/><path class="cls-2" d="M272.46,237.73c2.69-7.82,5.32-15.43,7.93-23.05,4.06-11.84,8.15-23.66,12.12-35.53,.58-1.74,1.4-2.28,3.18-2.23,4.04,.12,4.03,.03,5.29,3.87,5.92,17.88,11.86,35.76,17.77,53.64,.33,1.01,.91,1.97,.76,3.3-1.98,0-3.96-.08-5.93,.03-1.43,.07-1.32-1.08-1.55-1.82-1.84-5.66-3.67-11.33-5.34-17.04-.42-1.42-1.02-1.79-2.41-1.77-5.58,.07-11.16,.1-16.73-.02-1.55-.03-2.15,.54-2.57,1.9-1.68,5.54-3.48,11.04-5.13,16.59-.47,1.57-1.08,2.42-2.9,2.17-1.38-.19-2.81-.04-4.48-.04Zm23.86-52.38c-.51,.19-.65,.57-.79,.97-2.65,8.06-5.28,16.12-7.97,24.17-.47,1.39-.25,1.88,1.34,1.85,4.66-.09,9.33-.08,13.99,0,1.47,.02,1.9-.28,1.4-1.81-2.7-8.38-5.32-16.79-7.97-25.18Z"/><path class="cls-2" d="M57.03,237.73c2.76-8.13,5.44-16.07,8.14-24,3.94-11.53,7.92-23.03,11.8-34.58,.54-1.62,1.21-2.31,3.05-2.24,4.16,.16,4.16,.05,5.43,3.87,6.04,18.18,12.06,36.36,18.16,54.52,.64,1.9,.56,2.54-1.7,2.47-4.78-.14-4.79-.02-6.24-4.62-1.49-4.73-3.04-9.45-4.38-14.22-.46-1.65-1.26-2-2.81-1.98-5.49,.08-10.99,.08-16.48,0-1.49-.02-2.16,.4-2.6,1.92-1.59,5.48-3.5,10.86-5.02,16.36-.59,2.15-1.64,2.75-3.65,2.51-1.14-.14-2.32-.02-3.72-.02Zm32.19-25.52c-2.85-9.04-5.65-17.91-8.45-26.79l-.51,.05c-2.92,8.87-5.83,17.73-8.79,26.74h17.75Z"/><path class="cls-2" d="M82.59,275.55c1.87,1.08,4.05,.85,6.03,1.41,1.96,.55,4.03,1.04,3.97,3.66-.06,2.54-2.07,3.1-4.04,3.65-1.64,.45-3.23,.47-4.88-.01-.99-.29-1.84-.69-2.55-1.42-.71-.74-1.03-2.17-.61-2.5,2.39-1.86-1.89-5.81,2.35-6.83-2.02-2.78-2.31-4.84-1.01-6.61,1.45-1.96,3.96-2.6,6.93-1.5,1.18,.44,2.09-.28,3.14-.18,.51,.05,1.3-.29,1.33,.64,.02,.52-.26,1.01-.91,.94-1.69-.18-1.36,.84-1.23,1.88,.45,3.53-1.49,5.59-5.16,5.58-1.25,0-2.74-.58-3.35,1.29Zm6.34-5.47c0-2.29-1.01-3.6-2.9-3.54-1.78,.06-3,.83-3,2.86,0,2.19,1.22,3.73,3.11,3.71,1.97-.02,2.8-1.16,2.8-3.03Zm-2.93,13.13c.73-.13,1.46-.23,2.17-.41,.99-.25,2.14-.64,2.12-1.77-.02-1.16-1.1-1.77-2.21-2.02-1.13-.25-2.3-.32-3.41-.62-.96-.26-1.56-.04-2.07,.79-.59,.95-.65,2.01-.03,2.78,.81,1.01,2.11,1.23,3.42,1.23Z"/><path class="cls-2" d="M36.94,272.27c-.04-4.21,2.41-6.98,6.28-7.06,3.71-.08,6.26,2.65,6.32,6.73,.05,4.22-2.47,7.19-6.13,7.2-3.97,.02-6.42-2.6-6.47-6.87Zm10.55-.19c.04-2.92-1.72-5.17-4.11-5.27-2.54-.1-4.25,1.98-4.34,5.25-.08,2.88,1.91,5.5,4.21,5.54,2.22,.04,4.2-2.55,4.24-5.53Z"/><path class="cls-2" d="M314.05,278.96c-1.4-.15-2.83-.24-3.99-1.17-.51-.41-1.03-.9-.38-1.66,.59-.7,.94-.22,1.41,.16,1.38,1.12,2.96,1.43,4.67,.96,.85-.24,1.48-.75,1.66-1.66,.21-1.01-.51-1.65-1.19-1.99-1.24-.64-2.63-.98-3.93-1.53-1.66-.7-3.1-1.6-2.9-3.78,.21-2.22,1.86-2.77,3.61-3.1,1.38-.26,2.8-.4,4.13,.27,.68,.34,1.82,.49,1.21,1.68-.49,.96-1.21,.47-1.87,.07-1.12-.69-2.35-.68-3.61-.5-.84,.12-1.4,.63-1.57,1.39-.18,.81,.29,1.5,1,1.83,.97,.46,2,.79,3.01,1.14,3.22,1.12,4.39,2.4,4.04,4.48-.37,2.16-2.32,3.42-5.32,3.43Z"/><path class="cls-2" d="M161.13,278.81c-1.25,.08-2.54-.21-3.64-1.05-.42-.32-1.49-.42-.66-1.39,.52-.62,1.03-.78,1.64-.13,1.15,1.23,2.59,1.34,4.13,1.09,1.1-.18,1.92-.74,2.05-1.86,.11-1.01-.48-1.69-1.46-2.04-1.4-.51-2.81-1.02-4.18-1.61-1.49-.64-2.51-1.76-2.42-3.43,.1-1.84,1.43-2.78,3.08-3.13,1.62-.35,3.33-.56,4.88,.25,.51,.27,1.64,.42,1.13,1.47-.43,.87-1.1,.72-1.86,.25-1.09-.67-2.31-.88-3.59-.54-.85,.22-1.61,.53-1.69,1.55-.06,.87,.44,1.39,1.2,1.7,.92,.37,1.82,.79,2.76,1.09,3.22,1.03,4.39,2.29,4.08,4.46-.32,2.23-2.1,3.34-5.44,3.32Z"/><path class="cls-2" d="M274.17,278.8c-2.76,.25-4.55-1.25-5.57-3.82-1.11-2.82-.93-5.53,1.04-7.94,1.73-2.11,4.03-2.43,6.52-1.82,.62,.15,1.2,.55,1.73,.92,.39,.28,.79,.68,.26,1.22-.35,.36-.62,.61-1.24,.34-4.39-1.93-6.93-.39-6.81,4.18,.05,1.92,.52,3.95,2.26,5.01,1.68,1.02,3.51,.8,4.91-.85,.55-.65,1.07-.26,1.47,.13,.55,.53-.07,.92-.35,1.21-1.1,1.15-2.52,1.5-4.23,1.42Z"/><path class="cls-2" d="M198.06,271.66c0-1.25,.42-2.72-.1-3.69-.76-1.41-2.1-2.42,.39-3.37,.2-.08,.05-1.1,.05-1.68,0-.64,.08-1.15,.92-1.13,.7,.02,1.17,.27,1.09,1.01-.18,1.73,.13,2.93,2.3,2.52,.47-.09,.78,.19,.75,.71-.04,.77-.59,1.02-1.21,.94-2.05-.28-2.05,.97-2,2.43,.07,1.83,0,3.66,.02,5.49,.02,1.61,.48,2.81,2.48,2.52,.44-.07,1.03-.34,1.14,.45,.1,.73-.29,1-.97,1.14-2.5,.53-4.52-.81-4.77-3.35-.13-1.32-.02-2.66-.02-3.99h-.06Z"/><path class="cls-2" d="M234.71,271.73c0-1.82,.01-3.64,0-5.46,0-.66,.09-1.13,.91-1.15,.84-.02,1.17,.31,1.16,1.17-.03,3.72-.02,7.45,0,11.17,0,.73-.08,1.28-1.04,1.27-.98,0-1.02-.58-1.02-1.3,.01-1.9,0-3.81,0-5.71Z"/><path class="cls-2" d="M125.43,271.72c0,1.9,0,3.8,0,5.7,0,.71-.03,1.29-1,1.31-.99,.03-1.02-.54-1.02-1.26,0-3.72,0-7.44,0-11.16,0-.59-.02-1.17,.84-1.19,.83-.02,1.2,.28,1.19,1.14-.03,1.82,0,3.64,0,5.45Z"/><path class="cls-2" d="M124.44,259.66c.48,.05,.97,.33,.89,1.2-.07,.74-.51,.97-1.15,.91-.64-.05-1.04-.39-1.01-1.09,.03-.65,.26-1.1,1.27-1.02Z"/><path class="cls-2" d="M236.64,260.73c.05,.64-.34,1-1,1.02-.64,.02-1.13-.25-1.14-.99-.02-.69,.38-1.11,1.02-1.17,.72-.08,.97,.47,1.13,1.14Z"/></g></g></svg>