<?xml version="1.0" encoding="utf-8"?>
<!-- Generator: Adobe Illustrator 22.0.1, SVG Export Plug-In . SVG Version: 6.00 Build 0)  -->
<svg version="1.1" id="Layer_1" xmlns="http://www.w3.org/2000/svg" xmlns:xlink="http://www.w3.org/1999/xlink" x="0px" y="0px"
	 viewBox="0 0 503 103.3" style="enable-background:new 0 0 503 103.3;" xml:space="preserve">
<style type="text/css">
	.st0{fill:#2B3990;}
</style>
<g>
	<polygon class="st0" points="84,36.8 84,3.4 -0.1,3.4 -0.1,36.8 19.4,36.8 19.4,23 32.1,23 32.1,81.7 25.3,81.7 25.3,101.3 
		58.6,101.3 58.6,81.7 51.8,81.7 51.8,23 64.5,23 64.5,36.8 	"/>
	<path class="st0" d="M193.5,26.4c-9.6,0-16.5,5.3-19.6,10.4v-8.5h-23.5v15.3h4.6v57.9h19.3V57.4c0-7.8,5.1-13.7,13-13.7
		c6.6,0,12.2,5,12.2,13.1v44.5h19.3V59.1C218.8,43.6,214.3,26.4,193.5,26.4"/>
	<path class="st0" d="M304.6,0.1l-19.3,0.1l0.2,35.7c-1.8-2.5-9.2-9.5-21.8-9.4c-20.9,0.1-34.6,16-34.5,38.6
		c0.1,22.5,15,38.2,36,38.1c12.4-0.1,19.7-7.1,21.7-9.5l1.9,7.5l20.8-0.1L309.6,86H305L304.6,0.1z M267.6,86.1
		c-10.9,0.1-18.8-8-18.8-21c-0.1-12.7,7.4-21.6,18.6-21.7c10.7-0.1,18.8,7.7,18.8,21.5C286.3,76.5,279.3,86,267.6,86.1"/>
	<path class="st0" d="M351.9,26.4c-20.8,0-35.8,16.5-35.8,38.6c0,22,14.9,38.1,38.4,38.1c18.2,0,28-10.9,30.8-16.1l-12.7-9.7
		c-2.1,3.1-7.8,8.9-17.8,8.9c-10.8,0-18.6-7-19-16.8h51.4c0.1-1.4,0.1-2.8,0.1-4.2C387.4,41.4,374.6,26.4,351.9,26.4 M336.3,57
		c0.8-8.4,6.7-14.8,15.8-14.8c8.8,0,15.3,5.9,15.7,14.8H336.3z"/>
	<path class="st0" d="M477.8,26.4c-9.8,0-17.4,4.2-21.7,10.9c-3.8-6.7-10.7-10.9-20-10.9c-10,0-16.4,5.3-19,10.4v-8.5h-23.5v15.3
		h4.6v57.9h19.3V57.6c0-8.6,5.1-13.8,11.9-13.8c7.1,0,11.3,4.9,11.3,13.1v44.4H460V57.7c0-8.8,4.9-14,11.9-14
		c7.1,0,11.5,5.2,11.5,13.8v43.7h19.3V53C502.7,37.4,494.4,26.4,477.8,26.4"/>
	<path class="st0" d="M110.2,26.4c-5.2,0-10.3,0.9-14.9,2.3v16.7c4-1.4,8.2-2.3,12.8-2.3c8.5,0,13.3,4.4,13.3,10.8v4.8
		c-2.6-1.8-8.3-4.1-15.8-4.1c-17.1-0.1-28.4,9.7-28.4,24.1c0,15.4,12.6,24.5,27.3,24.5c8.4,0,14-2.5,17.8-6.6l1.2,4.8h17.1V55.1
		C140.7,38.7,133.7,26.4,110.2,26.4 M109.3,88.2c-7.2,0-12.7-4.1-12.7-10.1S101.8,68,109.2,68c7.4,0,12.7,3.8,12.7,10.2
		C121.8,84.2,116.5,88.2,109.3,88.2"/>
</g>
</svg>
