<?xml version="1.0" encoding="UTF-8"?><svg id="Capa_2" xmlns="http://www.w3.org/2000/svg" viewBox="0 0 882.28 566.36"><defs><style>.cls-1{fill:#f5f5f5;stroke:#284093;stroke-miterlimit:10;}</style></defs><g id="Capa_2-2"><g id="DORSO_2"><g><path class="cls-1" d="M863.05,124.07c.75-3.46,1.11-7.3,2.47-10.75,1.46-3.71,3-7.72,7.62-9.03,3.07-.87,3.5-2.34,1.62-4.91-.48-.66-1.13-1.21-1.74-1.77-2.5-2.29-5.04-4.54-7.49-6.88-.48-.46-.95-1.33-.87-1.93,.48-3.34,1.02-6.68,1.81-9.95,.24-.98,1.21-2.22,2.12-2.52,2.66-.89,5.44-1.54,8.22-1.95,3.24-.48,4.9-2.07,4.97-5.31,.09-4.34-1.93-8.06-4.07-11.5-3.69-5.93-6.52-6.65-12.95-3.99-1.89,.79-3.48,.69-5.45,.19-4.03-1.02-8.2-1.56-12.34-2.1-2.53-.33-5.13-.14-7.67-.45-3.23-.38-6.44-1.47-9.65-1.45-3.98,.03-7.82,1.43-10.99,3.92-4.89,3.84-9.95,6.84-16.52,5.6-.24-.04-.49,.06-.74,.07-4.78,.09-9.5-.15-14.21-1.21-2.38-.54-5.02-.44-7.45-.06-2.04,.31-3.9,1.82-5.93,2.13-4.56,.69-8.83-.36-12.65-3.12-5.25-3.79-8.21-4.18-12.87-.98-2.85,1.96-5.12,4.85-7.39,7.54-2.49,2.94-4.61,6.2-9.28,5.22-1.98-.41-4.03-.54-6.01-.96-6.01-1.27-12.03-2.53-18-3.97-7.48-1.8-14.71-.84-21.78,1.8-3.44,1.29-7.23,2.15-10.4,.93-6.61-2.54-12.83-5.95-18.06-11.06-3.56-3.47-7.33-7.39-13.4-5.09-1.1,.42-2.74-.27-4.03-.74-1.86-.68-3.61-1.65-5.43-2.45-2.04-.89-4.1-.89-5.87,.54-3.71,3.01-6.9,6.49-8.22,11.23-1.3,4.66-3.81,8.19-8.03,10.77-3.51,2.15-5.98,5.72-6.3,9.7-.33,4.15-2.41,6.65-5.15,9.14-2.37,2.15-4.18,4.56-4.74,7.95-.25,1.5-1.56,3.27-2.9,4.06-3.23,1.92-6.73,2.41-10.36,.57-3.67-1.86-6.49-1.17-8.39,2.18-.9,1.59-1.49,3.63-1.42,5.43,.15,3.75-1.4,6.45-4.31,8.42-6.96,4.7-13.98,9.31-21.03,13.89-1.51,.98-3.14,2.03-4.86,2.41-4.98,1.09-10,2.1-15.06,2.68-3.78,.43-7.65,.2-11.48,.15-1.02,0-2.08-.35-3.04-.74-4.21-1.74-8.4-3.78-13.11-3.13-6.03,.84-11.44-1.61-16.94-3.11-8.1-2.21-17.44,.86-21.54,8.23-1.63,2.92-2.27,6.41-3.99,9.26-2.59,4.31-5.49,8.48-8.68,12.35-3.03,3.67-6.57,6.92-9.96,10.28-2.42,2.4-4.47,4.98-4.44,8.57,.03,3.32,.26,6.64,.42,9.97,.02,.32,.17,.64,.29,.94,1.03,2.55,2.47,3.46,6.04,3.05,3.65-.42,6.22,1.07,8.24,3.82,.41,.55,.29,1.49,.42,2.25-.7,0-1.41-.09-2.11,0-1.03,.11-2.72,.03-2.94,.55-.68,1.55-1.32,3.45-1,5.02,.66,3.23-.95,4.36-3.52,5.1-3.38,.97-6.32,2.55-8.95,5.08-4.89,4.69-10.1,9.05-15.3,13.41-2.87,2.4-3.48,5.75-1.3,8.78,1.49,2.08,3.03,4.14,4.27,6.37,.59,1.07,1.01,2.72-1.17,2.94-4.04,.41-8.09,.99-12.14,1.09-5.02,.13-8.02,3.9-8.27,7.38-.23,3.28-.81,6.31-1.9,9.4-1.47,4.15,.87,8.41,4.78,8.79,2.18,.21,4.21,.2,6.01,1.78,.59,.52,1.95,.4,2.89,.22,2.87-.54,5.7-1.29,8.56-1.89,3.04-.64,5.84-3.5,6.18-6.5,.42-3.73,1.87-6.65,5.51-8.37,.97-.46,1.7-1.97,2.03-3.14,.88-3.13,2.05-4.46,4.79-4.14,3.09,.36,5.54-.48,7.96-2.41,2.96-2.37,5.12-2.05,6.78,.84,2.7,4.7,6.91,7.69,11.46,10.14,2.65,1.43,4.1,3.57,5.15,6.03,1.01,2.37,1.22,2.55,3.27,.83,.64-.54,1.62-1.21,2.31-1.08,2.91,.55,5.76,1.4,8.64,2.08,1.48,.35,2.98,.75,4.48,.8,1.98,.06,2.75-.75,1.68-2.83-.4-.79-.41-2.43,.12-2.91,1.58-1.45,3.49-2.54,5.33-3.69,.18-.11,.71,.34,1.07,.54,2.81,1.59,2.83,4.47,3,7.11,.11,1.66,.28,3.07,1.62,4.21,1.12,.96,1.98,2.35,3.24,2.99,2.32,1.17,4.61,3.53,7.52,1.47,1.83-1.3,3.72-.63,5.09,.2,2.19,1.31,3.89,.57,5.83-.18,.87-.34,2.14-.82,2.75-.45,1.44,.89,2.36,2.33,1.9,4.24-.29,1.2-.44,2.45-.85,3.6-.77,2.15-1.52,4.34-2.6,6.34-1.05,1.97-5.08,2.6-7.46,1.61-.92-.38-2.17-.68-3.03-.37-4.66,1.72-9.11,.63-13.54-.74-4.94-1.53-9.75-3.39-15.06-3.47-7.19-.11-14.37-.48-21.55-.86-3.52-.19-5.19-1.97-5.78-5.38-.27-1.59-.68-3.22-1.39-4.66-1.07-2.17-2.66-3.68-5.46-3.4-4.34,.44-8.71,.57-13.05,1.01-2.84,.28-5.78,.48-8.44,1.42-3.89,1.37-7.56,3.36-11.34,5.08-.3,.13-.65,.15-.96,.26-4.38,1.56-8.81,3-13.12,4.72-3.42,1.36-6.03,3.78-7.53,7.21-1.52,3.46-4.01,6.09-7.08,8.14-6.91,4.63-11.72,10.93-14.74,18.55-1.06,2.67-2.01,5.59-.66,8.66,1.8,4.08,2.59,8.38,1.93,12.86-.18,1.22-.7,2.47-.56,3.65,.49,4.01,1.82,7.48,5.22,10.24,3.54,2.88,6.8,6.23,8.23,10.85,.18,.57,.78,1.08,1.3,1.46,3.28,2.36,6.57,4.72,9.92,6.98,1.98,1.34,3.99,2.8,6.54,1.04,.65-.45,1.5-.83,2.26-.83,2.11,0,3.8-1.56,6.36-.65,2.01,.72,4.52,1.97,7.26,.48,3.06-1.66,6.51-2.69,9.88-3.66,2.3-.66,4.91-.98,6.66,1.28,2.61,3.38,5.74,4.81,10.11,4.22,3.5-.47,5.61,1.97,5.16,5.5-.35,2.75-1.16,5.43-1.76,8.15-.81,3.68,.62,6.55,3.02,9.25,2,2.24,3.71,4.75,5.45,7.21,2.64,3.76,3.53,7.96,2.96,12.51-.05,.39,.06,.87,.27,1.2,1.7,2.69,.51,4.92-1.15,7.01-4.89,6.14-5.69,14.4-1.53,20.92,3.62,5.67,5.27,11.97,6.26,18.42,.51,3.31,1.42,6.21,3.27,8.96,2.77,4.14,4.7,8.52,4.61,13.75-.08,4.6,3.76,7.41,8.17,6.6,3.32-.61,6.64-1.45,9.99-1.66,5.12-.32,9.22-2.64,12.71-6.02,3.07-2.98,5.79-6.34,8.59-9.59,2.33-2.7,4.02-5.66,4.75-9.31,.37-1.85,1.9-4.22,3.53-4.92,4.75-2.05,5.71-4.99,4.31-9.75-.56-1.89-.59-4.72,.47-6.14,2.14-2.89,5.12-5.18,7.88-7.57,1.16-1,2.72-1.51,4-2.4,2.61-1.81,4.6-4.1,4.59-7.49,0-4.18,1-8.54-1.08-12.45-1.25-2.36-1.86-4.69-1.87-7.31,0-1.52-.53-3.04-.61-4.57-.07-1.36-.22-2.91,.31-4.08,2.51-5.5,7.23-9.35,11.07-13.82,2.64-3.08,6.27-5.32,9.45-7.95,1.47-1.22,3.23-2.24,4.29-3.74,2.98-4.24,6.41-8.2,7.74-13.48,1.03-4.09,.67-6.21-3.31-7.22-3.46-.87-7.19-.92-10.79-.84-2.86,.07-4.04-1.86-5.11-3.65-.38-.64,.79-2.47,1.6-3.46,.52-.64,1.67-.91,2.58-1.04,1.22-.17,2.62,.29,3.71-.11,4.37-1.62,8.75-3.29,12.93-5.32,2.61-1.27,4.81-3.38,7.35-4.84,1.84-1.06,4.23-1.3,5.88-2.55,4.35-3.32,8.01-7.36,10.49-12.32,.76-1.53,.64-3.01-.69-4.31-2.09-2.06-4.22-3.84-7.4-4.15-1.55-.15-3.08-1.14-4.48-1.98-.43-.25-.76-1.43-.53-1.87,.85-1.65,2.11-2.58,4.24-2.03,1.87,.49,3.85,.6,5.79,.8,1.4,.15,2.87-.02,4.22,.31,5,1.21,9.98,1.11,14.97,.03,2.1-.46,3.86-.1,5.46,1.48,2.06,2.03,4.33,3.84,6.44,5.81,.7,.65,1.23,1.49,1.77,2.29,1.27,1.89,2.6,3.43,5.13,3.87,1.68,.3,3.51,1.23,4.7,2.44,3.2,3.27,4.25,7.66,5.56,11.91,1.35,4.37,2.97,8.68,4.68,12.93,1.24,3.09,2.8,6.05,4.25,9.06,1.96,4.08,3.37,5.68,7.13,1.79,3.72-3.85,3.78-8.91,3.74-13.45-.04-4.37,1.84-6.81,4.54-9.51,4.95-4.96,9.66-10.16,14.52-15.2,.51-.53,1.37-.92,2.11-1,3.71-.41,6.41,2.05,9.5,3.43,2,.9,4.15,1.46,6.17,2.3,1.84,.76,3.81,1.44,5.34,2.64,1.44,1.13,2.36,2.9,3.53,4.37,1.72,2.17,4.03,3.06,6.68,3.87,4.76,1.46,7.75,5.54,10.96,9.09,3.6,3.98,6.98,8.16,10.41,12.3,1.06,1.28,1.94,1.82,3.46,.46,1.71-1.53,3.7-2.74,5.56-4.11,2.94-2.16,4.65-6.86,3.46-10.35-1.61-4.77-4.12-8.89-8.6-11.67-2.38-1.48-3.16-6.25-1.86-8.51,1.81-3.13,5.51-4.52,8.7-3.6,1.18,.34,2.69,.16,3.89-.25,3.47-1.2,6.88-2.6,10.28-4,2.17-.89,4.78-1.43,6.32-2.99,2.44-2.49,4.21-5.66,6.14-8.62,1.36-2.09,1.12-4.17-.33-6.24-1.67-2.37-1.82-4.83,0-7.31,1.02-1.39,2.25-2.82,2.67-4.43,.49-1.89,.83-4.25,.11-5.93-1.21-2.81-3.22-5.3-5.04-7.83-2.73-3.79-2.79-4.37-.07-8.01,.39-.53,.87-1.03,1.4-1.4,1.28-.88,2.03-2.26,.99-3.34-.78-.82-2.45-1.01-3.74-1.07-1.37-.06-2.76,.54-4.14,.53-2.4-.03-4.07-2.76-2.92-4.81,1.09-1.93,2.4-3.76,3.8-5.49,1.05-1.3,3.07-.82,3.87,.75,1.42,2.83,2.36,3.13,5.04,1.58,3.54-2.05,5.96-.9,6.4,3.19,.19,1.77,.97,2.79,2.5,3.68,1.15,.67,2.27,1.82,2.82,3.02,.59,1.3,.6,2.9,.67,4.37,.2,4.32,1.29,5.16,5.27,3.89,3.61-1.15,5.35-4.83,3.5-8.12-1.69-3-3.71-5.85-5.83-8.57-1.8-2.3-2.06-3.41-.46-5.97,1.23-1.98,2.08-3.93,2.14-6.45,.05-1.82,1.36-3.78,2.56-5.33,.73-.93,2.11-1.75,3.75-.62,.56,.39,2.16-.07,2.86-.65,2.48-2.08,4.19-4.57,4.13-8.12-.05-2.84,.07-5.8,.81-8.51,.9-3.28,2.64-6.33,3.79-9.56,.55-1.55,.92-3.31,.78-4.93-.21-2.4-.82-4.78-1.48-7.11-.84-2.97-1.55-6.08-3.01-8.75-.96-1.77-3.19-2.82-4.75-4.29-4.09-3.86-9.32-6.6-11.76-12.1-1.55-3.49-3.04-7.09-.35-10.48,3.73-4.7,7.52-9.44,11.85-13.56,4.6-4.37,10.08-5.8,16.02-1.99,2.39,1.54,4.32-.2,6.07-1.52,1.14-.86,1.79-2.04,.73-3.68-.72-1.12-1.34-2.66-1.19-3.92,.31-2.66,.84-5.39,1.89-7.83,.61-1.43,2.22-2.79,3.7-3.37,.91-.35,2.46,.76,3.64,1.36,1.49,.75,3.04,1.5,4.32,2.54,1.18,.97,2.85,2.32,2.87,3.52,.07,4.1-.43,8.22-.86,12.31-.15,1.44-.54,2.91-1.13,4.24-2.77,6.3-2.44,12.83,.07,18.81,2.33,5.56,6.03,10.56,9.31,15.69,.91,1.42,2.31,2.66,3.76,3.54,2.32,1.41,4.13,.26,4.16-2.38,.05-4.42,.1-8.84,.17-13.26,0-.39,.11-.87,.35-1.17,2.54-3.26,2.3-6.33,.55-10.09-1.44-3.09-1.55-6.85-1.93-10.35-.23-2.08-1.18-3.34-2.88-4.25-2.07-1.12-3.19-2.75-2.94-5.21,.09-.89,.07-1.88-.23-2.71-1.41-3.85-.06-6.74,3.86-7.94,3.76-1.14,7.53-2.25,11.45-3.42v.03ZM209.82,197.35c-2.78-2.98-5.18-5.77-7.83-8.3-2.37-2.28-5.11-4.17-7.5-6.43-3.35-3.17-6.13-6.95-10.72-8.68-.94-.35-1.76-2.17-1.85-3.38-.34-4.46,1.76-8.36,4.61-11.33,3.91-4.08,8.51-7.51,12.96-11.04,1.08-.86,2.7-1.06,4.1-1.51,2.64-.84,5.42-1.31,6.75-4.35,.68-1.55,1.63-3.24,2.95-4.2,3.22-2.33,6.68-4.24,10.96-4,3.42,.19,5.78-1.41,7.08-4.71,.78-1.97,2-3.76,2.92-5.69s1.78-3.97,.49-6.03c-.65-1.03-1.62-1.87-2.52-2.72-2.93-2.75-4.36-3.15-6.6-.27-3.37,4.33-4.45,3.9-8.71,.72-.27-.2-.49-.49-.79-.6-2.96-1.17-5.88-3.09-8.9-3.27-5.15-.3-10.37,.48-15.56,.85-.47,.03-.93,.32-1.39,.51-3.58,1.45-7.13,1.78-10.69-.13-3.87-2.09-8.12-1.84-12.11-.99-4.06,.87-7.89,.71-11.74-.42-1.04-.31-1.88-.93-1.26-2.59,1.36-3.61,.43-5.32-3.19-7.05-.44-.21-.86-.51-1.24-.83-3.06-2.62-6.02-5.38-9.18-7.86-4.61-3.62-9.21-7.38-15.7-6.78-3.93,.36-7.88,.49-11.79,.93-4.09,.46-7.79,.38-10.82-3.16-3.45-4.05-7.9-6.92-12.26-9.99-6.39-4.5-12.16-9.88-18.24-14.83-2.99-2.43-5.77-5.07-10.33-2.93-5,2.34-10.3,4.03-15.45,6.05-2.04,.8-3.95,2.25-6.04,2.55-5.33,.78-10.55,4.55-9.72,10.85,.25,1.88,.1,3.83-.04,5.74-.16,2.12-1.68,3.27-3.64,2.52-2.63-1.01-4.91,.1-7.09,.99-2.92,1.19-5.14,3.32-6.65,6.26-1.13,2.21,.14,5.72,2.54,6.33,2.18,.55,4.33,1.22,6.44,1.97,1.59,.57,2.19,2,1.57,3.43-.45,1.05-1.47,2.2-2.5,2.59-4.74,1.78-9.63,3.16-14.33,5.02-1.48,.59-3.09,2.01-3.68,3.45-1.2,2.91-1.86,6.06-2.5,9.16-.41,2,.13,3.57,2.43,4.5,1.62,.66,3.26,2.18,2.07,4.36-1.28,2.35,.5,3.13,1.86,4.08,.78,.55,1.91,.61,2.69,1.16,.88,.62,2.03,1.43,2.23,2.35,.53,2.42,.3,4.87-2.08,6.43-2.25,1.48-4.63,2.77-6.82,4.32-.67,.47-.91,1.55-1.35,2.35,.86,.02,1.89,.37,2.54,.02,5.87-3.12,11.65-6.41,17.52-9.54,2.25-1.2,3.66-2.74,3.73-5.41,.01-.55,.72-1.58,1.05-1.55,2.02,.14,4.27,.03,5.99,.91,3.59,1.84,9.11,.68,11.14-2.83,1.72-2.98,2.63-2.92,4.86-.42,2.28,2.55,4.67,4.88,8.11,6.24,4.06,1.61,7.13,4.82,8.67,9.07,.85,2.34,2.35,3.78,4.65,4.36,3.46,.87,5.04,2.77,5.05,6.3,0,1.65-.2,3.38,.18,4.94,1.09,4.44,3.2,8.63,1.87,13.51-.45,1.64,.48,3.64,.75,5.48,.52,3.54,2.7,6.74,2.12,10.51-.03,.18,.26,.41,.39,.62,1.49,2.53,3.06,5.02,4.46,7.6,1.63,3.02,1.08,6.15-1.58,8.16-1.7,1.28-2.77,2.86-2.45,4.83,.81,5.05-2.3,8.97-3.56,13.41-1.13,3.96-4.16,7.4-3.17,11.95,.11,.49-.37,1.08-.41,1.63-.13,1.94-.42,3.92-.21,5.83,.37,3.39,1.27,6.72,1.58,10.1,.42,4.45,1.69,8.59,4.57,11.95,2.71,3.16,6.29,5.67,7.52,9.89,1.39,4.77,5.46,8.45,5.4,13.83-.01,1.39,.68,2.89,1.38,4.17,1.58,2.92,3.34,5.74,5.05,8.59,1.84,3.06,4.04,5.47,8.12,4.83,.96-.15,2.04-.12,2.97,.15,2.49,.74,5.55,.78,6.16,4.24,.19,1.06,.28,2.14,.35,3.21,.3,4.56,2.25,7.95,6.63,9.81,2.31,.98,4.5,2.27,6.74,3.42,4.38,2.26,8.72,4.63,13.17,6.73,1.53,.72,3.42,.61,5.05,1.16,2.72,.91,5.28,2.54,8.05,2.96,5.33,.8,9.25,3.83,11.62,8.04,3.52,6.26,9.86,7.12,15.39,9.66,.14,.06,.33,0,.5,.04,3.54,.66,3.93-2.54,5.79-4.61-1.03-.46-1.79-.87-2.6-1.14-4.12-1.41-6.61-5.38-5.9-8.68,.61-2.85,.91-5.85,.75-8.75-.07-1.26-1.41-3.02-2.61-3.51-1.98-.82-4.31-.81-6.49-1.13-2.11-.31-3.09-2.15-2.07-4.02,.47-.87,1.1-1.65,1.63-2.48,1.6-2.49,1.1-5.17,.37-7.7-.54-1.91-3.55-3.35-5.3-2.93-4.16,1-7.88,2.7-10.96,5.85-1.24,1.26-3.11,2.7-4.69,2.69-10.2-.04-12.41-7.32-10.85-15.48,.42-2.22,1.06-4.4,1.42-6.62,.81-4.96,4.91-9.76,10.18-10.27,3.28-.31,6.28-.08,9.32,1.01,.55,.2,1.47-.13,2.01-.52,5.58-4.02,13.05-4.34,18.62-.41,1.53,1.08,3.64,3.04,3.52,4.43-.31,3.56,1.29,6.39,2.37,9.42,.34,.97,1.84,2.23,2.71,2.16,1.94-.16,3.51-2.87,3.19-4.33-.36-1.67-.46-3.39-.72-5.08-.13-.87-.06-2.15-.59-2.52-2.08-1.48-2.33-3.5-2.6-5.79-.31-2.6-.16-5.13,1.76-6.8,2.95-2.55,6.28-4.68,9.49-6.92,2.48-1.73,4.82-3.16,5.69-6.66,.91-3.63,3.15-6.94,4.97-10.3,1.08-1.99,2.3-3.96,3.76-5.68,1.82-2.15,3.46-4.84,7.03-4.21,1.94,.34,3.35-.79,4.03-2.29,.55-1.2,.13-2.8,.42-4.17,.22-1.05,.59-2.54,1.36-2.94,3.2-1.64,6.9-2.33,10.09-.77,5.21,2.54,9.67,.41,14.15-1.45,2.23-.92,2.06-3.16-.05-4.47-1.02-.64-2.3-.87-3.31-1.52-3.2-2.04-2.56-5.24-1.81-8.03,.53-1.98-.02-2.86-1.37-3.97-.77-.64-1.15-1.76-1.71-2.66,.97-.5,1.9-1.14,2.93-1.47,.76-.24,1.72-.31,2.47-.06,4.75,1.57,9.47,1.11,14.2-.04,1.5-.36,2.99-1.03,4.49-1.06,7.76-.19,9.66-6.35,6.71-11.91-1.68-3.16-4.33-5.81-6.5-8.72-1.07-1.44-2.52-2.83-2.96-4.47-.79-2.94-.97-6.05-1.36-9.1-.22-1.65-.24-3.33-.57-4.95-.45-2.24-1.75-4.08-3.94-4.74-2.15-.65-4.06,.16-5.45,2.06-.45,.61-1.19,1.02-1.92,1.62-1.51-1.59-3.92-2.95-3.97-4.4-.1-3.17-1.87-5.05-3.37-7.41-2.55-3.99-5.94-6.76-10.07-8.87-1.9-.97-3.58-.72-5.47-.1-3.57,1.16-5.05,4.16-6.24,7.19-1.06,2.72-.9,6.03-2.3,8.5-2.6,4.56-1.86,8.69,.17,12.98,.94,1.99,1.12,3.86-.96,5.26-3.79,2.53-7.53,5.09-10.16,8.94-.16,.23-.59,.28-.52,.25v-.05Zm12.21,350.03c.79,2.52,1.42,5.21,2.48,7.72,1.17,2.76,2.72,5.36,4.13,8.01,.27,.5,.59,1.05,1.03,1.37,3.22,2.26,9.88,1.93,11.63-2.97,2.06-5.77,1.79-11.91,.68-17.89-.67-3.63-2.09-6.99,1.01-10.4,2.06-2.27,2.83-5.11,1.77-8.5-1.27-4.04-.05-5.22,4.07-6.73,1.37-.5,2.71-2.21,3.23-3.66,.89-2.49,2.41-3.9,4.77-4.78,4.53-1.69,8.73-3.64,9.14-9.5,.12-1.66,1.01-3.33,3.03-4.17,2.53-1.05,3.98-3.26,5.23-5.73,1.35-2.68,3.09-5.2,4.87-7.64,3.39-4.64,7.37-8.8,7.02-15.33-.24-4.51,3.92-8.2,8.19-9.67,3.97-1.37,7.79-3.41,11.32-5.69,2.84-1.83,3.59-5.3,4.91-8.34,1.81-4.16,1.91-8.5,2.58-12.81,.37-2.4,1.07-5.05,2.49-6.93,2.22-2.95,5.19-5.34,7.81-7.99,3.76-3.8,4.19-8.28,.92-12.43-7.2-9.13-16.81-14.24-28.2-15.72-8.56-1.11-15.66-4.11-20.21-11.9-2.4-4.11-6.05-6.95-10.41-8.9-5.45-2.45-10.51-5.49-15.01-9.52-4.24-3.79-9.45-6.16-15.06-6.34-6.03-.19-11.67-1.91-17.51-2.84-2.74-.44-5.93-.91-8.34,.05-6.57,2.63-12.16,6.47-15.27,13.55-1.39,3.16-.91,5.68-.21,8.36,.46,1.75,.12,2.7-.96,3.96-1.36,1.58-2.5,3.37-3.53,5.18-.97,1.71-1.56,3.63-2.52,5.35-3.6,6.47-3.67,12.22,.7,18.21,4.91,6.73,9.41,13.67,12.42,21.48,2.32,6.01,7.98,8.62,12.69,12.02,5.57,4.03,9.16,8.97,9.67,15.85,.25,3.39,.07,6.82,0,10.23-.02,1.06-.27,2.12-.49,3.17-.8,3.9-1.86,7.77-2.38,11.71-.55,4.25-.73,8.57-.84,12.87-.17,6.73-.25,13.46-.16,20.19,.03,2.68,.38,5.4,.99,8,.34,1.45,1.48,2.73,2.34,4.02,2.96,4.45,2.91,9.36,2.1,14.34-.56,3.46-1.36,6.89-2.13,10.71v.03ZM299.55,105.03c1.64,1.67,2.58,3.15,3.93,3.86,1.58,.84,1.85,1.89,1.33,3.23-1.04,2.68-2.16,5.34-3.49,7.89-.45,.85-1.53,1.54-2.48,1.93-3.03,1.25-4.67,5-3.49,8.15,.37,.98,.56,2.04,.7,3.09,.36,2.76,.58,5.53,.98,8.28,.2,1.35,.68,2.66,1,4,.75,3.2,1.14,6.53,2.35,9.54,.56,1.4,2.59,2.31,4.1,3.19s3.15,1.59,4.82,2.1c1.29,.39,3.62,.93,3.94,.43,1.82-2.87,3.65-5.9,4.49-9.14,.49-1.87,.9-3.53,2.1-5.02,.72-.89,1.39-1.84,1.99-2.82,2.7-4.41,5.93-7.81,11.49-8.73,4.48-.74,8.15-3.38,10.66-7.36,1.49-2.36,3.77-3.5,6.41-4.01,1.91-.37,3.86-.56,5.76-.98,7.46-1.64,13.66-5.2,17.66-11.94,2.36-3.97,2.81-4.14-.37-8.02-1.37-1.67-3.07-3.06-4.46-4.71-1.63-1.95-1.71-4.93-.33-6.31,2.25-2.25,2.95,.73,4.41,1.22,.97,.32,2.37,.17,3.27-.33,1.31-.73,3.14-1.91,2.16-3.67-1.57-2.8,0-4.76,1.46-6.45,2.04-2.36,2.32-4.56,.99-7.24-1.06-2.14-.41-3.82,1.65-4.68,2.88-1.21,3.83-2.6,3.66-5.74-.15-2.79-.63-5.58-.7-8.37-.15-5.95,3-10.2,7.49-13.65,2.93-2.26,6.21-4.15,7.94-7.66,1.07-2.16,1.55-4.24,.08-6.55-2.32-3.63-6-3.77-9.6-4.01-3.37-.22-3.63-.07-3.65-3.45-.03-5.36-2.95-9.23-6.47-12.55-2.21-2.08-5.12-3.54-7.93-4.82-4.68-2.12-9.46-3-14.35-.16-1.65,.96-3.75,1.13-5.6,1.79-2.14,.76-4.36,1.45-6.31,2.57-3.2,1.83-6.2,4.01-9.31,6-1.73,1.1-3.45,1.22-5.42,.28-2.48-1.19-5.03-2.26-8.01-1.38-2.82,.83-5.09-.58-7.19-2.39-2.38-2.05-4.78-4.12-7.36-5.9-4.33-2.96-9.31-3.96-14.4-4.04-3.09-.05-6.2,.58-9.3,.91-.33,.04-.66,.1-.99,.16-5.15,.91-10.34,1.63-15.42,2.82-2.49,.58-5.27,1.53-7.01,3.23-1.67,1.63-3.22,3.97-1.78,7.12,1.64,3.59,2.19,7.42-.99,10.87-.94,1.02-1.27,2.63-1.75,4.02-1.02,2.96-2.56,5.25-5.44,6.98-3.35,2.01-5.66,5.88-3.1,8.9,1.57,1.85,3.46,3.86,6.25,3.83,1.84-.02,2.66,.84,3.25,2.4,.98,2.57,2.43,3.14,4.79,1.73,3-1.79,5.84-3.84,8.81-5.67,1.94-1.19,3.97-2.25,6.04-3.2,.39-.18,1.65,.49,1.63,.63-.46,2.74,1.26,5.79-1.21,8.28-.46,.46-.51,1.52-.43,2.26,.14,1.37,.6,2.71,.76,4.08,.27,2.32,1.68,3.66,4,3.85,3.03,.25,6.2,.17,9.02,1.11,2.25,.75,5.15,2.41,5.85,4.36,1.49,4.11,1.91,8.65,2.41,13.06,.38,3.28,.18,6.62,.28,9.94,0,.29,.32,.57,.44,.87,1.05,2.48,2.1,4.95,3.13,7.43,.71,1.71,.48,2.85-1.68,3.14-.92,.12-1.77,.69-3.49,1.4l.03,.02ZM874.02,475.56c-.35-3.75,.71-7-1.36-10-2.09-3.02-3.89-6.25-5.72-9.45-1.86-3.23-3.82-6.43-5.33-9.83-1.28-2.88-2.59-5.98-2.8-9.06-.29-4.21-2.05-7.46-4.71-10.35-1.51-1.63-3.4-2.24-5.83-1.14-3.51,1.58-4.19,4.43-4.8,7.76-.88,4.79-2.66,6.57-7.46,4.28-3.57-1.71-5.93-4.39-5.83-8.5,.15-6.35-7.84-10.09-13.19-8.28-3.49,1.18-5.59,3.77-7.95,6.12-1.65,1.64-3.35,2.14-5.38,1.45-3.53-1.2-6.43,.25-8.91,2.33-2.92,2.44-5.52,5.27-8.16,8.03-2.7,2.82-4.38,6.71-8.69,7.77-2.86,.7-5.67,1.62-8.51,2.37-6.58,1.75-11.71,6.16-12.59,12.64-.85,6.25-.73,12.73,1.12,19.02,1.21,4.09,1.27,8.33-.49,12.38-.97,2.22-1.7,4.56,.16,6.53,2.16,2.29,4.86,3.97,8.18,3,1.61-.47,3.12-1.56,4.46-2.64,1.63-1.3,3.24-2.1,5.41-1.91,3.38,.3,6.42-.45,8.59-3.38,.26-.35,.79-.57,1.24-.69,3.63-.93,7.25-1.91,10.92-2.7,2.4-.52,4.87-1.06,7.3-1.05,5.2,.01,11.13,3.56,11.89,10.07,.24,2.06,1.44,2.86,3.53,2.21,.57-.18,1.45-.28,1.83,.02,3.1,2.49,6.57,4.99,6.06,9.57-.55,4.95,2.3,7.31,6.1,9.04,1.01,.46,2.41,.26,3.59,.09,1.84-.26,3.63-.71,5.12,.87,1.08,1.15,2.04,1.17,3.46,.26,2.03-1.3,4.23-2.61,6.54-3.13,2.11-.47,3.15-1.46,3.82-3.28,.74-2,1.36-4.06,2.35-5.93,1.53-2.88,3.21-5.7,5.05-8.39,1.52-2.23,3.73-4.04,4.97-6.38,1.68-3.17,2.44-6.83,4.1-10.01,1.76-3.35,2.12-6.75,1.92-9.76v.05ZM257.16,153.67c1.35-1.84,2.12-3.77,3.53-4.61,2.78-1.66,3.84-4.11,3.96-6.95,.1-2.41,.92-3.11,3.29-3.07,5.91,.1,10.56-5.36,9.22-10.93-.42-1.74-1.83-3.29-2.97-4.78-1.1-1.44-2.61-2.6-3.62-4.09-.57-.84-.96-2.27-.66-3.17,1.8-5.22,.04-9.56-2.98-13.67-3.35-4.57-7.89-8.26-10.05-13.73-.26-.67-1.18-1.11-1.83-1.6-1.84-1.39-4.31-2.37-5.42-4.19-2.28-3.75-5.19-6.32-9.29-7.7-6.13-2.07-10.79-2.46-16.09,2.41-1.77,1.63-3.41,3.39-5.16,5.04-4.43,4.18-5.25,8.85-2.28,14.06,1.98,3.46,5.39,5.12,8.87,6.61,1.71,.73,3.42,1.53,5.21,1.99,1.88,.48,3.93,.35,5.76,.94,2.4,.78,5.22,.73,6.87,3.3,1.9,2.96,3.97,5.83,6.05,8.67,1.76,2.4,1.72,4.86-.56,6.81-2.06,1.76-4.26,3.4-6.55,4.84-1.36,.86-3.03,1.73-4.54,1.71-2.56-.03-4.25,1.21-5.79,2.85-.47,.51-.81,1.53-.65,2.18,.93,3.77,2.26,4.28,6.15,4.56,2.56,.19,5.88,.93,7.3,2.69,1.63,2.03,3.48,3.59,5.42,5.11,2.11,1.66,4.42,3.07,6.82,4.72h-.01Zm-76.81-81.75c-3.91,2.26-5.01,1.93-5.42-1.35-.38-3.05-3.48-6.11-6.54-6.53-5.68-.79-13.84,4.71-15.39,10.42-1.04,3.79-1.64,7.71-2.76,11.48-.93,3.14,.16,5.39,2.12,7.65,1.1,1.27,1.76,2.9,2.75,4.28,.66,.92,1.4,1.97,2.36,2.43,1.3,.63,2.83,.89,4.29,1.04,1.29,.13,2.63-.05,3.93-.21,1.29-.15,2.62-.79,3.83-.59,2.82,.47,5.57,1.37,8.37,1.98,1.42,.31,3.15,.95,4.3,.45,2.83-1.25,5.15-3.3,6.14-6.48,.62-2.02,.8-3.82,.42-6.11-.63-3.69,.19-7.65,.59-11.48,.29-2.81,1.81-5.51,.15-8.44-1.31-2.3-2.8-2.79-4.56-.9-.84,.9-1.28,2.18-1.98,3.24-.38,.58-.91,1.05-1.6,1.82l-.99-2.69h0ZM780.24,376.76c0-2.75,.17-4.77-.04-6.74-.31-2.86-1.73-5.22-4.36-6.51-2.18-1.07-4.46-.72-6.27,.93-2.89,2.61-5.6,5.41-8.47,8.04-2.58,2.36-4.5,5.42-8.16,6.65-1.77,.6-3.53,1.8-4.14,4.22-1.04,4.14,.28,7.72,2.24,11.03,1.85,3.12,5.17,4.6,8.67,5.03,1.87,.23,3.85-.58,5.79-.69,3.34-.2,6.02-1.12,7.37-4.61,.7-1.81,1.82-3.5,2.99-5.07,2.88-3.89,5.94-7.67,4.38-12.27h0Zm-204.6,52.6v-1.75c.05-3.08-1.85-6.6-4.18-7.25-2.97-.83-4.52,1.44-6.25,3.2-.12,.12-.21,.27-.34,.37-2.66,2.02-5.24,4.15-8,6.03-2.79,1.89-5.02,3.8-5,7.67,.01,3.11-.3,6.4-1.35,9.29-1.69,4.67-2.04,9.15-.21,13.73,1.14,2.84,3.62,4.42,6.06,3.33,2.32-1.04,4.97-2.51,6.23-4.56,3.59-5.81,6.83-11.89,9.65-18.12,1.69-3.73,3.93-7.49,3.39-11.94h0Zm296.44-16.06c-.09-.29-.19-1.25-.65-1.99-2.49-4.07-4.97-8.17-7.67-12.1-1.06-1.54-2.48-3.11-4.11-3.9-5.09-2.47-10.26-4.83-15.58-6.68-2.33-.81-5.12-1.49-7.71-.23-1.4,.68-2.75,1.48-4.11,2.25-2.09,1.18-3.94,2.91-3.22,5.32,.45,1.5,2.23,3.03,3.78,3.67,3.63,1.49,5.91,4,7.52,7.44,.75,1.61,1.74,3.27,3.04,4.44,2.14,1.93,4.72,3.5,7.73,3.18,1.82-.19,3.5-1.38,5.33-1.81,1.34-.31,2.95-.5,4.17-.04,2.66,1.01,5.09,2.58,7.71,3.71,2.15,.92,3.8-.35,3.76-3.26h0Zm-129.28-17.52c-.1-3.28-2.18-5.35-4.5-7.29-.7-.59-1.36-1.24-1.97-1.92-2.37-2.61-4.53-5.44-7.12-7.81-2.04-1.86-4.57-3.19-6.9-4.72-2.87-1.89-5.7-3.87-8.67-5.58-1.4-.81-3.41-.96-4.13,.79-.5,1.2-.36,3.18,.34,4.27,3.2,4.98,6.68,9.78,10.09,14.62,2.31,3.27,4.1,6.96,7.7,9.21,2.43,1.52,4.6,3.45,7.06,4.91,1.09,.65,3.02,1.25,3.82,.72,2.45-1.6,4.22-3.95,4.28-7.2h0Z"/><path class="cls-1" d="M863.05,124.07c-3.92,1.17-7.69,2.28-11.45,3.42-3.92,1.19-5.27,4.09-3.86,7.94,.3,.82,.32,1.82,.23,2.71-.24,2.47,.87,4.09,2.94,5.21,1.7,.92,2.65,2.17,2.88,4.25,.38,3.5,.5,7.26,1.93,10.35,1.75,3.77,2,6.84-.55,10.09-.23,.3-.34,.77-.35,1.17-.08,4.42-.12,8.84-.17,13.26-.03,2.64-1.84,3.79-4.16,2.38-1.45-.88-2.86-2.13-3.76-3.54-3.28-5.13-6.98-10.13-9.31-15.69-2.5-5.98-2.83-12.51-.07-18.81,.58-1.33,.98-2.8,1.13-4.24,.43-4.09,.93-8.21,.86-12.31-.02-1.21-1.7-2.56-2.87-3.52-1.28-1.05-2.83-1.79-4.32-2.54-1.19-.6-2.74-1.71-3.64-1.36-1.48,.57-3.08,1.93-3.7,3.37-1.04,2.44-1.58,5.17-1.89,7.83-.15,1.26,.47,2.8,1.19,3.92,1.06,1.64,.41,2.82-.73,3.68-1.75,1.32-3.68,3.05-6.07,1.52-5.94-3.81-11.43-2.38-16.02,1.99-4.33,4.12-8.12,8.86-11.85,13.56-2.69,3.39-1.2,7,.35,10.48,2.44,5.5,7.66,8.24,11.76,12.1,1.56,1.47,3.79,2.52,4.75,4.29,1.45,2.67,2.16,5.78,3.01,8.75,.66,2.33,1.27,4.71,1.48,7.11,.14,1.61-.23,3.38-.78,4.93-1.15,3.23-2.89,6.27-3.79,9.56-.74,2.71-.85,5.67-.81,8.51,.06,3.54-1.65,6.03-4.13,8.12-.7,.58-2.3,1.04-2.86,.65-1.64-1.13-3.02-.31-3.75,.62-1.2,1.54-2.51,3.51-2.56,5.33-.06,2.51-.91,4.47-2.14,6.45-1.6,2.56-1.33,3.67,.46,5.97,2.12,2.72,4.14,5.57,5.83,8.57,1.86,3.29,.11,6.97-3.5,8.12-3.98,1.27-5.07,.43-5.27-3.89-.07-1.48-.08-3.08-.67-4.37-.54-1.2-1.66-2.35-2.82-3.02-1.53-.89-2.31-1.91-2.5-3.68-.44-4.09-2.86-5.24-6.4-3.19-2.68,1.55-3.61,1.26-5.04-1.58-.79-1.58-2.82-2.05-3.87-.75-1.39,1.73-2.71,3.56-3.8,5.49-1.16,2.05,.52,4.77,2.92,4.81,1.38,.02,2.77-.59,4.14-.53,1.29,.06,2.95,.25,3.74,1.07,1.03,1.08,.29,2.45-.99,3.34-.54,.37-1.01,.87-1.4,1.4-2.72,3.64-2.65,4.22,.07,8.01,1.82,2.52,3.83,5.01,5.04,7.83,.72,1.68,.38,4.04-.11,5.93-.42,1.6-1.65,3.03-2.67,4.43-1.81,2.48-1.66,4.94,0,7.31,1.45,2.07,1.7,4.15,.33,6.24-1.93,2.96-3.7,6.13-6.14,8.62-1.53,1.56-4.15,2.1-6.32,2.99-3.4,1.4-6.81,2.8-10.28,4-1.2,.41-2.7,.59-3.89,.25-3.19-.92-6.89,.47-8.7,3.6-1.3,2.25-.52,7.03,1.86,8.51,4.49,2.79,6.99,6.91,8.6,11.67,1.18,3.49-.52,8.19-3.46,10.35-1.86,1.37-3.85,2.58-5.56,4.11-1.52,1.36-2.39,.82-3.46-.46-3.43-4.13-6.81-8.32-10.41-12.3-3.21-3.54-6.2-7.63-10.96-9.09-2.65-.81-4.96-1.7-6.68-3.87-1.17-1.47-2.1-3.25-3.53-4.37-1.53-1.2-3.5-1.88-5.34-2.64-2.03-.84-4.17-1.41-6.17-2.3-3.09-1.38-5.79-3.84-9.5-3.43-.74,.08-1.6,.47-2.11,1-4.87,5.05-9.57,10.25-14.52,15.2-2.7,2.7-4.58,5.14-4.54,9.51,.04,4.55-.02,9.6-3.74,13.45-3.76,3.89-5.16,2.29-7.13-1.79-1.45-3.01-3.01-5.97-4.25-9.06-1.71-4.25-3.33-8.55-4.68-12.93-1.31-4.26-2.37-8.64-5.56-11.91-1.19-1.21-3.02-2.15-4.7-2.44-2.53-.45-3.86-1.99-5.13-3.87-.54-.8-1.07-1.64-1.77-2.29-2.11-1.97-4.38-3.78-6.44-5.81-1.6-1.58-3.37-1.93-5.46-1.48-4.99,1.08-9.97,1.19-14.97-.03-1.35-.33-2.81-.16-4.22-.31-1.94-.21-3.92-.32-5.79-.8-2.12-.55-3.38,.38-4.24,2.03-.23,.44,.11,1.62,.53,1.87,1.4,.83,2.93,1.83,4.48,1.98,3.18,.31,5.3,2.09,7.4,4.15,1.32,1.3,1.45,2.78,.69,4.31-2.48,4.96-6.14,9-10.49,12.32-1.65,1.26-4.03,1.49-5.88,2.55-2.54,1.46-4.74,3.56-7.35,4.84-4.19,2.04-8.56,3.7-12.93,5.32-1.1,.41-2.49-.06-3.71,.11-.91,.13-2.06,.41-2.58,1.04-.82,.99-1.99,2.82-1.6,3.46,1.07,1.79,2.26,3.72,5.11,3.65,3.6-.09,7.33-.03,10.79,.84,3.98,1,4.34,3.13,3.31,7.22-1.34,5.29-4.77,9.24-7.74,13.48-1.06,1.51-2.82,2.53-4.29,3.74-3.18,2.63-6.8,4.87-9.45,7.95-3.84,4.47-8.56,8.32-11.07,13.82-.53,1.17-.38,2.72-.31,4.08,.08,1.53,.61,3.05,.61,4.57,.01,2.63,.62,4.96,1.87,7.31,2.08,3.92,1.07,8.27,1.08,12.45,0,3.39-1.98,5.68-4.59,7.49-1.28,.88-2.84,1.4-4,2.4-2.77,2.38-5.74,4.68-7.88,7.57-1.05,1.42-1.02,4.25-.47,6.14,1.4,4.76,.44,7.69-4.31,9.75-1.63,.7-3.16,3.07-3.53,4.92-.73,3.66-2.42,6.61-4.75,9.31-2.8,3.25-5.52,6.61-8.59,9.59-3.49,3.39-7.59,5.7-12.71,6.02-3.35,.21-6.67,1.05-9.99,1.66-4.41,.81-8.25-2-8.17-6.6,.1-5.23-1.83-9.61-4.61-13.75-1.84-2.75-2.76-5.65-3.27-8.96-.99-6.45-2.64-12.74-6.26-18.42-4.16-6.53-3.36-14.79,1.53-20.92,1.67-2.09,2.85-4.32,1.15-7.01-.21-.33-.31-.81-.27-1.2,.57-4.54-.32-8.75-2.96-12.51-1.73-2.46-3.45-4.97-5.45-7.21-2.4-2.7-3.83-5.57-3.02-9.25,.6-2.71,1.4-5.4,1.76-8.15,.46-3.54-1.66-5.97-5.16-5.5-4.38,.59-7.51-.84-10.11-4.22-1.75-2.27-4.36-1.95-6.66-1.28-3.37,.97-6.82,2-9.88,3.66-2.74,1.49-5.25,.24-7.26-.48-2.57-.92-4.26,.64-6.36,.65-.76,0-1.62,.38-2.26,.83-2.55,1.77-4.57,.3-6.54-1.04-3.35-2.26-6.64-4.62-9.92-6.98-.52-.38-1.12-.89-1.3-1.46-1.43-4.62-4.7-7.98-8.23-10.85-3.4-2.77-4.73-6.23-5.22-10.24-.14-1.18,.38-2.43,.56-3.65,.66-4.48-.14-8.78-1.93-12.86-1.35-3.07-.4-5.98,.66-8.66,3.02-7.62,7.83-13.93,14.74-18.55,3.06-2.05,5.56-4.68,7.08-8.14,1.5-3.43,4.12-5.85,7.53-7.21,4.32-1.72,8.74-3.16,13.12-4.72,.31-.11,.66-.12,.96-.26,3.77-1.71,7.44-3.71,11.34-5.08,2.65-.93,5.6-1.13,8.44-1.42,4.34-.44,8.71-.57,13.05-1.01,2.8-.28,4.39,1.23,5.46,3.4,.71,1.44,1.11,3.07,1.39,4.66,.59,3.42,2.26,5.2,5.78,5.38,7.18,.38,14.36,.75,21.55,.86,5.31,.08,10.12,1.95,15.06,3.47,4.43,1.37,8.88,2.46,13.54,.74,.86-.32,2.11-.01,3.03,.37,2.38,.98,6.4,.35,7.46-1.61,1.07-2,1.82-4.19,2.6-6.34,.41-1.15,.56-2.4,.85-3.6,.47-1.91-.46-3.35-1.9-4.24-.6-.37-1.88,.11-2.75,.45-1.94,.76-3.64,1.49-5.83,.18-1.37-.82-3.26-1.49-5.09-.2-2.91,2.06-5.2-.3-7.52-1.47-1.26-.63-2.12-2.03-3.24-2.99-1.34-1.14-1.51-2.54-1.62-4.21-.17-2.64-.19-5.52-3-7.11-.36-.2-.9-.65-1.07-.54-1.83,1.15-3.75,2.24-5.33,3.69-.52,.48-.52,2.12-.12,2.91,1.06,2.08,.3,2.89-1.68,2.83-1.5-.05-3-.45-4.48-.8-2.88-.68-5.73-1.54-8.64-2.08-.69-.13-1.67,.54-2.31,1.08-2.05,1.72-2.26,1.54-3.27-.83-1.05-2.47-2.5-4.6-5.15-6.03-4.55-2.45-8.76-5.44-11.46-10.14-1.66-2.89-3.82-3.21-6.78-.84-2.42,1.93-4.87,2.78-7.96,2.41-2.74-.32-3.9,1.02-4.79,4.14-.33,1.17-1.06,2.68-2.03,3.14-3.64,1.72-5.08,4.64-5.51,8.37-.34,3.01-3.14,5.86-6.18,6.5-2.86,.6-5.69,1.35-8.56,1.89-.94,.18-2.3,.29-2.89-.22-1.8-1.58-3.83-1.57-6.01-1.78-3.91-.38-6.25-4.64-4.78-8.79,1.09-3.08,1.67-6.12,1.9-9.4,.25-3.48,3.24-7.25,8.27-7.38,4.05-.1,8.1-.68,12.14-1.09,2.18-.22,1.76-1.87,1.17-2.94-1.24-2.23-2.78-4.29-4.27-6.37-2.17-3.03-1.57-6.38,1.3-8.78,5.2-4.36,10.42-8.72,15.3-13.41,2.64-2.53,5.57-4.11,8.95-5.08,2.57-.73,4.18-1.86,3.52-5.1-.32-1.57,.32-3.47,1-5.02,.23-.52,1.91-.44,2.94-.55,.69-.07,1.41,0,2.11,0-.13-.76-.01-1.7-.42-2.25-2.02-2.75-4.59-4.24-8.24-3.82-3.57,.41-5.01-.51-6.04-3.05-.12-.3-.27-.62-.29-.94-.16-3.32-.39-6.64-.42-9.97-.03-3.59,2.02-6.17,4.44-8.57,3.39-3.36,6.93-6.61,9.96-10.28,3.2-3.87,6.1-8.05,8.68-12.35,1.71-2.86,2.36-6.34,3.99-9.26,4.1-7.36,13.44-10.44,21.54-8.23,5.5,1.5,10.92,3.95,16.94,3.11,4.71-.66,8.9,1.39,13.11,3.13,.96,.4,2.02,.73,3.04,.74,3.83,.05,7.69,.28,11.48-.15,5.06-.58,10.08-1.58,15.06-2.68,1.72-.38,3.35-1.42,4.86-2.41,7.05-4.58,14.07-9.19,21.03-13.89,2.91-1.97,4.46-4.67,4.31-8.42-.07-1.8,.52-3.84,1.42-5.43,1.9-3.35,4.72-4.04,8.39-2.18,3.64,1.84,7.14,1.35,10.36-.57,1.34-.79,2.65-2.56,2.9-4.06,.56-3.39,2.37-5.8,4.74-7.95,2.74-2.49,4.83-5,5.15-9.14,.32-3.98,2.79-7.55,6.3-9.7,4.21-2.58,6.73-6.11,8.03-10.77,1.32-4.74,4.51-8.22,8.22-11.23,1.76-1.43,3.83-1.43,5.87-.54,1.82,.79,3.57,1.77,5.43,2.45,1.29,.47,2.93,1.16,4.03,.74,6.07-2.3,9.84,1.62,13.4,5.09,5.24,5.1,11.46,8.52,18.06,11.06,3.17,1.22,6.96,.36,10.4-.93,7.06-2.64,14.29-3.6,21.78-1.8,5.97,1.44,11.99,2.7,18,3.97,1.98,.42,4.03,.54,6.01,.96,4.66,.97,6.79-2.28,9.28-5.22,2.27-2.69,4.54-5.58,7.39-7.54,4.66-3.2,7.61-2.81,12.87,.98,3.82,2.76,8.08,3.81,12.65,3.12,2.04-.31,3.9-1.81,5.93-2.13,2.44-.37,5.07-.47,7.45,.06,4.71,1.06,9.43,1.3,14.21,1.21,.25,0,.51-.11,.74-.07,6.57,1.24,11.63-1.77,16.52-5.6,3.17-2.49,7.01-3.89,10.99-3.92,3.21-.02,6.41,1.06,9.65,1.45,2.54,.3,5.13,.12,7.67,.45,4.14,.54,8.3,1.08,12.34,2.1,1.98,.5,3.56,.6,5.45-.19,6.43-2.67,9.26-1.94,12.95,3.99,2.14,3.45,4.16,7.16,4.07,11.5-.06,3.24-1.73,4.83-4.97,5.31-2.78,.41-5.56,1.07-8.22,1.95-.91,.3-1.88,1.54-2.12,2.52-.79,3.27-1.33,6.61-1.81,9.95-.09,.6,.38,1.47,.87,1.93,2.45,2.34,4.99,4.59,7.49,6.88,.61,.56,1.25,1.11,1.74,1.77,1.89,2.57,1.46,4.04-1.62,4.91-4.62,1.31-6.16,5.32-7.62,9.03-1.36,3.45-1.72,7.3-2.47,10.75v-.03Zm-402.12,83.24c3.99-1.15,7.79-2.07,11.43-3.41,1.29-.47,2.6-1.8,3.19-3.06,.98-2.11,1.23-4.55,2.09-6.74,1.27-3.26,1.34-6.36-.02-9.63-2.16-5.19-3.62-10.56-2.99-16.29,.02-.16,0-.33-.01-.5-.2-1.83-1.44-1.99-2.71-1.39-4.08,1.91-6.22,7.75-4.33,11.8,.62,1.33,1.61,2.49,2.33,3.78,.83,1.5,.72,2.67-.54,4.2-2.1,2.56-4.26,5.26-3.77,9.06,.35,2.68-1.05,4.55-3.4,5.74-4.33,2.21-4.53,3.61-1.28,6.44h0Z"/><path class="cls-1" d="M209.82,197.35c-.07,.03,.36,0,.52-.25,2.63-3.85,6.38-6.41,10.16-8.94,2.08-1.39,1.9-3.27,.96-5.26-2.03-4.3-2.76-8.42-.17-12.98,1.4-2.47,1.24-5.77,2.3-8.5,1.18-3.03,2.67-6.03,6.24-7.19,1.89-.62,3.57-.87,5.47,.1,4.13,2.12,7.52,4.88,10.07,8.87,1.5,2.35,3.27,4.24,3.37,7.41,.05,1.44,2.45,2.81,3.97,4.4,.73-.6,1.47-1.01,1.92-1.62,1.4-1.9,3.3-2.71,5.45-2.06,2.2,.66,3.49,2.51,3.94,4.74,.33,1.62,.35,3.3,.57,4.95,.4,3.05,.57,6.16,1.36,9.1,.44,1.64,1.88,3.03,2.96,4.47,2.17,2.91,4.82,5.56,6.5,8.72,2.95,5.56,1.05,11.72-6.71,11.91-1.51,.04-2.99,.7-4.49,1.06-4.73,1.15-9.45,1.61-14.2,.04-.74-.25-1.71-.18-2.47,.06-1.03,.33-1.96,.96-2.93,1.47,.56,.9,.93,2.03,1.71,2.66,1.36,1.12,1.91,2,1.37,3.97-.75,2.8-1.39,6,1.81,8.03,1.01,.65,2.29,.88,3.31,1.52,2.11,1.31,2.28,3.55,.05,4.47-4.48,1.86-8.94,3.99-14.15,1.45-3.2-1.56-6.9-.87-10.09,.77-.77,.39-1.14,1.88-1.36,2.94-.28,1.37,.13,2.97-.42,4.17-.68,1.5-2.09,2.64-4.03,2.29-3.57-.63-5.21,2.06-7.03,4.21-1.46,1.72-2.68,3.69-3.76,5.68-1.82,3.36-4.07,6.68-4.97,10.3-.87,3.5-3.22,4.93-5.69,6.66-3.21,2.24-6.54,4.36-9.49,6.92-1.92,1.66-2.06,4.2-1.76,6.8,.27,2.29,.52,4.31,2.6,5.79,.53,.38,.45,1.65,.59,2.52,.26,1.69,.36,3.41,.72,5.08,.32,1.46-1.25,4.17-3.19,4.33-.87,.07-2.36-1.19-2.71-2.16-1.08-3.02-2.68-5.85-2.37-9.42,.12-1.39-1.98-3.35-3.52-4.43-5.57-3.93-13.04-3.61-18.62,.41-.53,.39-1.46,.71-2.01,.52-3.05-1.09-6.04-1.32-9.32-1.01-5.27,.51-9.37,5.3-10.18,10.27-.36,2.23-.99,4.41-1.42,6.62-1.56,8.16,.65,15.44,10.85,15.48,1.58,0,3.46-1.43,4.69-2.69,3.08-3.14,6.81-4.85,10.96-5.85,1.75-.42,4.75,1.02,5.3,2.93,.72,2.53,1.22,5.21-.37,7.7-.53,.83-1.16,1.61-1.63,2.48-1.02,1.87-.04,3.7,2.07,4.02,2.18,.32,4.51,.31,6.49,1.13,1.19,.49,2.54,2.25,2.61,3.51,.16,2.9-.14,5.9-.75,8.75-.7,3.3,1.79,7.27,5.9,8.68,.81,.28,1.57,.69,2.6,1.14-1.86,2.07-2.25,5.27-5.79,4.61-.16-.03-.35,.03-.5-.04-5.53-2.54-11.87-3.39-15.39-9.66-2.37-4.21-6.29-7.24-11.62-8.04-2.77-.42-5.33-2.05-8.05-2.96-1.63-.54-3.53-.44-5.05-1.16-4.46-2.1-8.79-4.47-13.17-6.73-2.24-1.15-4.43-2.44-6.74-3.42-4.38-1.86-6.33-5.24-6.63-9.81-.07-1.08-.16-2.16-.35-3.21-.62-3.46-3.67-3.5-6.16-4.24-.93-.27-2.01-.3-2.97-.15-4.08,.64-6.29-1.77-8.12-4.83-1.71-2.85-3.47-5.67-5.05-8.59-.69-1.28-1.39-2.78-1.38-4.17,.06-5.38-4.01-9.06-5.4-13.83-1.23-4.22-4.81-6.73-7.52-9.89-2.88-3.36-4.15-7.49-4.57-11.95-.32-3.39-1.21-6.72-1.58-10.1-.21-1.92,.08-3.89,.21-5.83,.04-.55,.51-1.14,.41-1.63-.99-4.56,2.05-7.99,3.17-11.95,1.26-4.44,4.38-8.36,3.56-13.41-.32-1.97,.75-3.55,2.45-4.83,2.66-2.01,3.21-5.14,1.58-8.16-1.39-2.58-2.96-5.07-4.46-7.6-.13-.21-.42-.44-.39-.62,.58-3.77-1.59-6.97-2.12-10.51-.27-1.84-1.2-3.84-.75-5.48,1.33-4.88-.78-9.07-1.87-13.51-.39-1.57-.18-3.29-.18-4.94-.01-3.53-1.59-5.44-5.05-6.3-2.31-.58-3.8-2.01-4.65-4.36-1.54-4.25-4.61-7.47-8.67-9.07-3.44-1.36-5.83-3.69-8.11-6.24-2.24-2.5-3.14-2.57-4.86,.42-2.03,3.52-7.54,4.68-11.14,2.83-1.71-.88-3.97-.77-5.99-.91-.33-.02-1.04,1-1.05,1.55-.07,2.67-1.49,4.21-3.73,5.41-5.87,3.13-11.65,6.42-17.52,9.54-.66,.35-1.69,0-2.54-.02,.44-.8,.68-1.88,1.35-2.35,2.19-1.55,4.57-2.84,6.82-4.32,2.37-1.56,2.6-4.01,2.08-6.43-.2-.91-1.35-1.73-2.23-2.35-.78-.55-1.91-.61-2.69-1.16-1.36-.95-3.14-1.72-1.86-4.08,1.19-2.19-.45-3.71-2.07-4.36-2.3-.93-2.84-2.5-2.43-4.5,.64-3.1,1.31-6.25,2.5-9.16,.59-1.44,2.2-2.86,3.68-3.45,4.7-1.86,9.59-3.24,14.33-5.02,1.03-.39,2.05-1.54,2.5-2.59,.62-1.43,.02-2.86-1.57-3.43-2.11-.76-4.27-1.42-6.44-1.97-2.4-.61-3.68-4.12-2.54-6.33,1.51-2.94,3.73-5.07,6.65-6.26,2.19-.89,4.46-2,7.09-.99,1.96,.75,3.48-.4,3.64-2.52,.14-1.91,.29-3.86,.04-5.74-.84-6.3,4.38-10.07,9.72-10.85,2.09-.3,4-1.75,6.04-2.55,5.15-2.03,10.45-3.71,15.45-6.05,4.56-2.13,7.35,.5,10.33,2.93,6.08,4.95,11.85,10.33,18.24,14.83,4.35,3.07,8.8,5.94,12.26,9.99,3.03,3.54,6.72,3.63,10.82,3.16,3.92-.44,7.87-.57,11.79-.93,6.48-.6,11.08,3.16,15.7,6.78,3.17,2.49,6.12,5.24,9.18,7.86,.38,.32,.79,.62,1.24,.83,3.63,1.73,4.55,3.44,3.19,7.05-.62,1.66,.22,2.28,1.26,2.59,3.85,1.13,7.68,1.29,11.74,.42,3.99-.85,8.23-1.1,12.11,.99,3.56,1.92,7.11,1.59,10.69,.13,.46-.19,.91-.47,1.39-.51,5.19-.37,10.4-1.15,15.56-.85,3.02,.18,5.94,2.11,8.9,3.27,.3,.12,.52,.4,.79,.6,4.25,3.18,5.34,3.6,8.71-.72,2.24-2.88,3.67-2.48,6.6,.27,.9,.85,1.87,1.69,2.52,2.72,1.3,2.06,.43,4.1-.49,6.03-.92,1.92-2.14,3.71-2.92,5.69-1.3,3.3-3.66,4.9-7.08,4.71-4.27-.24-7.74,1.67-10.96,4-1.32,.95-2.27,2.65-2.95,4.2-1.33,3.04-4.11,3.5-6.75,4.35-1.39,.45-3.01,.65-4.1,1.51-4.45,3.53-9.05,6.97-12.96,11.04-2.85,2.98-4.95,6.87-4.61,11.33,.09,1.2,.92,3.02,1.85,3.38,4.59,1.74,7.36,5.52,10.72,8.68,2.39,2.26,5.13,4.15,7.5,6.43,2.64,2.54,5.04,5.33,7.83,8.3v.05Z"/><path class="cls-1" d="M222.03,547.38c.77-3.82,1.57-7.25,2.13-10.71,.81-4.97,.86-9.88-2.1-14.34-.86-1.3-2-2.58-2.34-4.02-.61-2.61-.95-5.33-.99-8-.08-6.73,0-13.46,.16-20.19,.11-4.3,.29-8.61,.84-12.87,.51-3.94,1.58-7.81,2.38-11.71,.21-1.05,.47-2.11,.49-3.17,.07-3.41,.25-6.84,0-10.23-.52-6.87-4.1-11.81-9.67-15.85-4.71-3.41-10.36-6.01-12.69-12.02-3.02-7.81-7.52-14.75-12.42-21.48-4.37-5.99-4.3-11.73-.7-18.21,.96-1.72,1.55-3.64,2.52-5.35,1.03-1.82,2.18-3.61,3.53-5.18,1.08-1.26,1.42-2.21,.96-3.96-.7-2.69-1.18-5.2,.21-8.36,3.12-7.08,8.7-10.92,15.27-13.55,2.41-.97,5.6-.49,8.34-.05,5.83,.93,11.48,2.64,17.51,2.84,5.61,.18,10.82,2.55,15.06,6.34,4.5,4.03,9.56,7.07,15.01,9.52,4.36,1.96,8,4.79,10.41,8.9,4.55,7.79,11.64,10.79,20.21,11.9,11.39,1.48,21,6.58,28.2,15.72,3.27,4.15,2.84,8.63-.92,12.43-2.62,2.65-5.59,5.04-7.81,7.99-1.42,1.88-2.11,4.53-2.49,6.93-.67,4.31-.77,8.65-2.58,12.81-1.32,3.03-2.07,6.5-4.91,8.34-3.53,2.29-7.36,4.33-11.32,5.69-4.27,1.47-8.43,5.16-8.19,9.67,.35,6.53-3.64,10.69-7.02,15.33-1.78,2.44-3.51,4.95-4.87,7.64-1.25,2.47-2.7,4.68-5.23,5.73-2.02,.84-2.91,2.51-3.03,4.17-.41,5.86-4.6,7.81-9.14,9.5-2.36,.88-3.89,2.29-4.77,4.78-.52,1.45-1.86,3.16-3.23,3.66-4.12,1.51-5.34,2.69-4.07,6.73,1.06,3.39,.3,6.23-1.77,8.5-3.1,3.4-1.68,6.77-1.01,10.4,1.11,5.98,1.38,12.12-.68,17.89-1.75,4.9-8.42,5.24-11.63,2.97-.45-.31-.77-.87-1.03-1.37-1.41-2.65-2.96-5.25-4.13-8.01-1.06-2.51-1.69-5.19-2.48-7.72v-.03Z"/><path class="cls-1" d="M299.55,105.03c1.72-.71,2.58-1.28,3.49-1.4,2.16-.28,2.38-1.43,1.68-3.14-1.03-2.48-2.08-4.96-3.13-7.43-.13-.3-.44-.58-.44-.87-.1-3.31,.09-6.66-.28-9.94-.5-4.41-.93-8.95-2.41-13.06-.7-1.95-3.6-3.61-5.85-4.36-2.82-.94-5.99-.87-9.02-1.11-2.32-.19-3.73-1.52-4-3.85-.16-1.37-.62-2.71-.76-4.08-.08-.75-.02-1.8,.43-2.26,2.46-2.49,.75-5.54,1.21-8.28,.02-.13-1.24-.8-1.63-.63-2.07,.96-4.1,2.01-6.04,3.2-2.98,1.83-5.81,3.88-8.81,5.67-2.36,1.41-3.81,.83-4.79-1.73-.6-1.57-1.42-2.42-3.25-2.4-2.79,.03-4.69-1.98-6.25-3.83-2.56-3.02-.25-6.89,3.1-8.9,2.88-1.73,4.42-4.02,5.44-6.98,.48-1.39,.81-3,1.75-4.02,3.18-3.45,2.64-7.28,.99-10.87-1.44-3.15,.11-5.49,1.78-7.12,1.75-1.7,4.52-2.65,7.01-3.23,5.08-1.19,10.27-1.91,15.42-2.82,.33-.06,.66-.13,.99-.16,3.1-.33,6.2-.96,9.3-.91,5.09,.08,10.07,1.07,14.36,4.03,2.58,1.78,4.98,3.85,7.36,5.9,2.1,1.81,4.37,3.22,7.19,2.39,2.98-.88,5.52,.19,8.01,1.38,1.97,.95,3.69,.82,5.42-.28,3.12-1.98,6.11-4.17,9.31-6,1.96-1.12,4.17-1.81,6.31-2.57,1.85-.66,3.94-.82,5.6-1.79,4.89-2.85,9.68-1.97,14.35,.16,2.81,1.28,5.73,2.74,7.93,4.82,3.53,3.33,6.45,7.19,6.47,12.55,.02,3.38,.28,3.23,3.65,3.45,3.6,.24,7.29,.38,9.6,4.01,1.47,2.3,.99,4.38-.08,6.55-1.73,3.51-5.01,5.4-7.94,7.66-4.49,3.45-7.63,7.7-7.49,13.65,.07,2.79,.55,5.58,.7,8.37,.17,3.15-.79,4.54-3.66,5.74-2.06,.86-2.71,2.53-1.65,4.68,1.33,2.69,1.05,4.88-.99,7.24-1.46,1.69-3.04,3.66-1.46,6.45,.99,1.76-.85,2.93-2.16,3.67-.89,.5-2.3,.65-3.27,.33-1.46-.49-2.16-3.47-4.41-1.22-1.38,1.38-1.31,4.36,.33,6.31,1.39,1.65,3.09,3.05,4.46,4.71,3.19,3.87,2.74,4.05,.37,8.02-4.01,6.73-10.21,10.3-17.66,11.94-1.9,.42-3.84,.61-5.76,.98-2.64,.51-4.92,1.65-6.41,4.01-2.51,3.98-6.18,6.61-10.66,7.36-5.56,.92-8.79,4.32-11.49,8.73-.6,.98-1.27,1.92-1.99,2.82-1.2,1.49-1.62,3.15-2.1,5.02-.85,3.23-2.68,6.27-4.49,9.14-.32,.51-2.64-.03-3.94-.43-1.67-.51-3.31-1.22-4.82-2.1s-3.54-1.8-4.1-3.19c-1.2-3.01-1.6-6.34-2.35-9.54-.31-1.34-.8-2.65-1-4-.4-2.75-.62-5.52-.98-8.28-.14-1.04-.33-2.11-.7-3.09-1.18-3.15,.46-6.9,3.49-8.15,.95-.39,2.04-1.08,2.48-1.93,1.33-2.54,2.45-5.21,3.49-7.89,.52-1.33,.25-2.39-1.33-3.23-1.35-.71-2.29-2.19-3.93-3.86h.01Z"/><path class="cls-1" d="M874.02,475.56c.2,3.01-.16,6.41-1.92,9.76-1.67,3.18-2.43,6.83-4.1,10.01-1.24,2.35-3.45,4.16-4.97,6.38-1.84,2.69-3.52,5.51-5.05,8.39-.99,1.87-1.61,3.93-2.35,5.93-.67,1.82-1.7,2.81-3.82,3.28-2.31,.51-4.5,1.83-6.54,3.13-1.41,.9-2.37,.89-3.46-.26-1.49-1.58-3.29-1.13-5.12-.87-1.18,.17-2.58,.37-3.59-.09-3.8-1.73-6.66-4.09-6.1-9.04,.51-4.58-2.96-7.08-6.06-9.57-.38-.31-1.26-.2-1.83-.02-2.09,.65-3.29-.15-3.53-2.21-.76-6.51-6.69-10.06-11.89-10.07-2.44,0-4.9,.54-7.3,1.05-3.66,.79-7.29,1.77-10.92,2.7-.45,.12-.99,.34-1.24,.69-2.17,2.93-5.21,3.68-8.59,3.38-2.16-.19-3.78,.62-5.41,1.91-1.35,1.07-2.85,2.17-4.46,2.64-3.32,.97-6.02-.71-8.18-3-1.86-1.97-1.13-4.31-.16-6.53,1.76-4.06,1.7-8.29,.49-12.38-1.86-6.29-1.97-12.78-1.12-19.02,.88-6.48,6.01-10.89,12.59-12.64,2.85-.76,5.65-1.67,8.51-2.37,4.31-1.06,5.99-4.95,8.69-7.77,2.64-2.76,5.24-5.59,8.16-8.03,2.48-2.08,5.38-3.53,8.91-2.33,2.03,.69,3.73,.19,5.38-1.45,2.36-2.35,4.46-4.94,7.95-6.12,5.34-1.81,13.33,1.93,13.19,8.28-.09,4.1,2.26,6.79,5.83,8.5,4.8,2.29,6.58,.52,7.46-4.28,.61-3.32,1.3-6.18,4.8-7.76,2.43-1.09,4.33-.49,5.83,1.14,2.66,2.88,4.42,6.14,4.71,10.35,.21,3.08,1.52,6.17,2.8,9.06,1.51,3.39,3.47,6.59,5.33,9.83,1.83,3.19,3.63,6.42,5.72,9.45,2.07,2.99,1.02,6.25,1.36,10v-.05Z"/><path class="cls-1" d="M257.16,153.67c-2.4-1.64-4.71-3.06-6.82-4.72-1.94-1.53-3.79-3.09-5.42-5.11-1.42-1.76-4.74-2.5-7.3-2.69-3.89-.28-5.22-.79-6.15-4.56-.16-.65,.18-1.67,.65-2.18,1.54-1.64,3.23-2.87,5.79-2.85,1.52,.02,3.19-.86,4.54-1.71,2.29-1.44,4.49-3.08,6.55-4.84,2.28-1.95,2.32-4.41,.56-6.81-2.08-2.84-4.15-5.71-6.05-8.67-1.65-2.57-4.47-2.52-6.87-3.3-1.83-.59-3.88-.46-5.76-.94-1.79-.46-3.5-1.27-5.21-1.99-3.49-1.48-6.9-3.15-8.87-6.61-2.98-5.21-2.15-9.89,2.28-14.06,1.75-1.65,3.39-3.41,5.16-5.04,5.3-4.88,9.96-4.49,16.09-2.41,4.1,1.39,7.01,3.96,9.29,7.7,1.11,1.82,3.58,2.8,5.42,4.19,.65,.49,1.56,.93,1.83,1.6,2.16,5.47,6.7,9.16,10.05,13.73,3.02,4.11,4.78,8.45,2.98,13.67-.31,.89,.08,2.32,.66,3.17,1.01,1.49,2.52,2.65,3.62,4.09,1.14,1.49,2.55,3.04,2.97,4.78,1.34,5.56-3.31,11.02-9.22,10.93-2.37-.04-3.19,.65-3.29,3.07-.12,2.85-1.18,5.29-3.96,6.95-1.41,.84-2.17,2.77-3.53,4.61h.01Z"/><path class="cls-1" d="M180.35,71.91l.99,2.69c.69-.77,1.22-1.24,1.6-1.82,.69-1.06,1.13-2.33,1.98-3.24,1.77-1.89,3.25-1.4,4.56,.9,1.66,2.93,.14,5.62-.15,8.44-.4,3.83-1.21,7.79-.59,11.48,.39,2.29,.21,4.09-.42,6.11-.98,3.18-3.3,5.23-6.14,6.48-1.15,.51-2.87-.14-4.3-.45-2.8-.61-5.55-1.51-8.37-1.98-1.21-.2-2.54,.44-3.83,.59-1.3,.15-2.64,.34-3.93,.21-1.46-.15-2.99-.41-4.29-1.04-.96-.46-1.7-1.51-2.36-2.43-.99-1.38-1.65-3.01-2.75-4.28-1.96-2.26-3.05-4.51-2.12-7.65,1.12-3.77,1.72-7.68,2.76-11.48,1.56-5.71,9.72-11.2,15.39-10.42,3.07,.42,6.16,3.48,6.54,6.53,.41,3.29,1.51,3.62,5.42,1.35h0Z"/><path class="cls-1" d="M780.24,376.76c1.56,4.6-1.5,8.38-4.38,12.27-1.16,1.57-2.29,3.26-2.99,5.07-1.35,3.49-4.03,4.41-7.37,4.61-1.94,.12-3.92,.92-5.79,.69-3.5-.43-6.82-1.9-8.67-5.03-1.96-3.31-3.28-6.89-2.24-11.03,.61-2.42,2.37-3.62,4.14-4.22,3.66-1.23,5.58-4.29,8.16-6.65,2.87-2.63,5.58-5.43,8.47-8.04,1.82-1.64,4.09-2,6.27-.93,2.63,1.29,4.04,3.65,4.36,6.51,.22,1.97,.04,3.98,.04,6.74h0Z"/><path class="cls-1" d="M575.64,429.37c.54,4.44-1.7,8.21-3.39,11.94-2.82,6.23-6.06,12.3-9.65,18.12-1.26,2.05-3.91,3.51-6.23,4.56-2.44,1.1-4.92-.48-6.06-3.33-1.83-4.58-1.49-9.06,.21-13.73,1.05-2.89,1.37-6.18,1.35-9.29-.02-3.87,2.21-5.78,5-7.67,2.76-1.87,5.34-4,8-6.03,.13-.1,.22-.25,.34-.37,1.73-1.76,3.29-4.03,6.25-3.2,2.33,.65,4.23,4.17,4.18,7.25v1.75h0Z"/><path class="cls-1" d="M872.08,413.31c.04,2.91-1.62,4.18-3.76,3.26-2.62-1.13-5.06-2.7-7.71-3.71-1.22-.46-2.83-.27-4.17,.04-1.82,.42-3.51,1.62-5.33,1.81-3.01,.31-5.59-1.25-7.73-3.18-1.3-1.17-2.28-2.83-3.04-4.44-1.61-3.45-3.89-5.95-7.52-7.44-1.55-.64-3.33-2.17-3.78-3.67-.72-2.4,1.13-4.14,3.22-5.32,1.36-.76,2.7-1.57,4.11-2.25,2.58-1.25,5.37-.58,7.71,.23,5.33,1.86,10.5,4.22,15.58,6.68,1.63,.79,3.05,2.37,4.11,3.9,2.7,3.93,5.18,8.03,7.67,12.1,.45,.74,.56,1.7,.65,1.99h0Z"/><path class="cls-1" d="M742.8,395.79c-.06,3.25-1.83,5.59-4.28,7.2-.8,.52-2.74-.08-3.82-.72-2.46-1.46-4.63-3.39-7.06-4.91-3.6-2.25-5.38-5.93-7.7-9.21-3.41-4.84-6.89-9.64-10.09-14.62-.7-1.09-.83-3.07-.34-4.27,.72-1.75,2.72-1.6,4.13-.79,2.98,1.71,5.8,3.69,8.67,5.58,2.33,1.54,4.87,2.86,6.9,4.72,2.59,2.37,4.75,5.2,7.12,7.81,.61,.68,1.27,1.33,1.97,1.92,2.32,1.94,4.4,4.01,4.5,7.29h0Z"/></g></g></g></svg>